<?xml version="1.0" encoding="UTF-8"?>
<svg width="190px" height="70px" viewBox="0 0 190 70" version="1.1" xmlns="http://www.w3.org/2000/svg" xmlns:xlink="http://www.w3.org/1999/xlink">
    <!-- Generator: Sketch 54.1 (76490) - https://sketchapp.com -->
    <title>Group 38</title>
    <desc>Created with Sketch.</desc>
    <defs>
        <polygon id="path-1" points="0.404073296 0.109347458 49.992145 0.109347458 49.992145 50.7295271 0.404073296 50.7295271"></polygon>
        <polygon id="path-3" points="0 0.39860625 29.7612353 0.39860625 29.7612353 41.5800438 0 41.5800438"></polygon>
        <polygon id="path-5" points="0.0448636364 0.364590909 9.83318182 0.364590909 9.83318182 9.94731818 0.0448636364 9.94731818"></polygon>
        <polygon id="path-7" points="0.0875454545 0.356 4.98527273 0.356 4.98527273 10 0.0875454545 10"></polygon>
        <polygon id="path-9" points="0 70 190 70 190 0 0 0"></polygon>
    </defs>
    <g id="Page-1" stroke="none" stroke-width="1" fill="none" fill-rule="evenodd" opacity="0.75">
        <g id="Desktop-HD" transform="translate(-1044.000000, -6026.000000)">
            <g id="Group-38" transform="translate(1044.000000, 6026.000000)">
                <g id="Group-3" transform="translate(1.000000, 0.000000)">
                    <mask id="mask-2" fill="white">
                        <use xlink:href="#path-1"></use>
                    </mask>
                    <g id="Clip-2"></g>
                    <path d="M21.6975877,16.6098788 C19.0800439,13.4530653 16.6857456,10.2876076 15.6370614,6.35801441 C14.9532895,3.79677712 15.7721491,2.2136161 18.2458333,1.15774322 C20.4524123,0.215539831 22.7958333,0.0690228814 25.1541667,0.117429661 C26.2629386,0.139904237 27.3677632,0.330938136 28.4774123,0.381505932 C30.441886,0.470972034 31.6554825,1.44126864 32.3405702,3.24398898 C37.1125,15.8033873 41.9094298,28.3528449 46.7006579,40.9048958 C47.7326754,43.6091924 48.7769737,46.3083025 49.8085526,49.0125992 C50.2620614,50.2028873 49.8844298,50.7262856 48.5747807,50.72715 C43.933114,50.7301754 39.2914474,50.7306076 34.6497807,50.7267178 C33.4449561,50.7258534 32.9269737,50.3636669 32.5024123,49.2386415 C31.9002193,47.6429466 31.3111842,46.0420653 30.710307,44.4450737 C30.0760965,42.7599127 29.0133772,42.0156585 27.2094298,42.0065822 C25.4151316,41.9975059 23.6199561,41.9970737 21.8252193,42.0070144 C20.1673246,42.0160907 19.010307,42.7460822 18.3971491,44.3020144 C17.714693,46.0316924 16.9826754,47.7419212 16.2879386,49.4664127 C15.9515351,50.3009975 15.3383772,50.7241246 14.4410088,50.7254212 C9.76907895,50.7310398 5.09671053,50.7275822 0.416447368,50.7275822 C0.3375,50.3753364 0.655921053,50.3252008 0.816447368,50.193811 C10.9774123,41.8816754 21.1125,33.5375568 31.3383772,25.3032178 C33.3506579,23.6828873 33.7826754,21.8533703 33.2173246,19.5709042 C32.3177632,15.9390992 30.0817982,13.1462008 27.4436404,10.5888534 C26.8274123,9.99198051 26.5541667,10.0140229 26.0594298,10.7163534 C24.6721491,12.6863364 23.1975877,14.5966754 21.6975877,16.6098788" id="Fill-1" fill="#172E52" mask="url(#mask-2)"></path>
                </g>
                <path d="M179.515024,43.2656138 C175.826099,45.0809879 171.931971,45.4890546 167.93136,44.4270347 C167.314887,44.2657262 166.744541,43.9731912 166.219893,43.6039256 C164.052321,42.0579803 164.097586,39.073774 166.326374,37.5888643 C167.725726,36.6506595 169.307864,36.420032 170.920178,36.3895142 C172.776065,36.350713 174.624623,36.3816668 176.480509,36.3816668 C178.450206,36.3816668 180.428094,36.3969257 182.397791,36.3659719 C182.92244,36.3581244 183.044873,36.5277163 183.059961,37.0430314 C183.143163,39.8659293 182.017561,42.0427214 179.515024,43.2656138 M189.859274,46.7655712 C189.654501,41.573619 189.806249,36.3733834 189.752792,31.1814311 C189.714855,27.3893746 188.300416,24.2203176 185.326255,21.9053233 C180.496208,18.1206783 174.982005,17.2901578 169.125077,18.544004 C165.2081,19.382372 162.036496,21.4819976 159.754682,24.8821182 C159.40506,25.3974333 159.420148,25.6585786 160.013342,25.9589611 C161.161793,26.5204889 162.287396,27.1277934 163.367733,27.7974414 C163.976016,28.166271 164.326069,28.1431647 164.729148,27.5123178 C165.101618,26.9202722 165.679724,26.4821236 166.272918,26.1050106 C170.106692,23.6818961 174.160759,23.2049463 178.351484,24.9435898 C180.678994,25.9127484 182.306829,27.6282855 182.869415,30.22012 C183.021593,30.9202858 182.862086,31.1125481 182.139562,31.1125481 C178.214394,31.0737468 174.290089,31.0972891 170.372681,31.0894417 C168.075779,31.0894417 165.831902,31.4046471 163.687179,32.2665574 C160.500486,33.5509215 158.469572,35.8275504 158.088911,39.3427667 C157.693592,42.9347135 158.568294,46.1887845 161.686874,48.2269386 C167.079075,51.7731087 172.84461,51.657577 178.66317,49.3499942 C180.526816,48.6040516 181.956776,47.2272622 183.173772,45.3813704 C183.371215,46.8732555 183.546673,48.165467 183.698421,49.4655259 C183.744548,49.8500504 183.819991,50.0575715 184.291614,50.05016 C186.018602,50.0192063 187.752487,50.0270537 189.486803,50.0423126 C189.882553,50.05016 190.026972,49.9346283 189.995933,49.519586 C189.927819,48.6040516 189.897642,47.6811057 189.859274,46.7655712" id="Fill-4" fill="#172E52"></path>
                <path d="M108.213174,31.6929329 C107.905255,29.7731832 107.212652,28.1185313 105.912836,26.7665327 C103.584466,24.3435391 100.67217,23.6525176 97.4855941,23.8628285 C93.3894914,24.1332282 90.3033984,26.791717 89.215762,30.8145756 C88.9802943,31.6854218 89.2666506,31.7057459 89.9415717,31.7035368 C95.7493433,31.6849799 101.556684,31.6929329 107.364455,31.6929329 L108.213174,31.6929329 Z M113.383544,42.4192303 C112.177311,45.1051125 110.442786,47.3253063 107.883692,48.6083795 C101.597653,51.7595083 95.2279506,51.9486114 89.0984594,48.2646361 C84.8414969,45.7064426 82.7020186,41.5952181 82.1366374,36.6100546 C81.6997715,32.7573004 82.2832656,29.0914401 84.2812909,25.7671141 C87.2966572,20.7483716 91.9016461,18.457485 97.4894754,18.0545364 C100.883056,17.809321 104.164079,18.3722119 107.154001,20.1262755 C111.519641,22.6888872 113.781165,26.7250007 114.656622,31.679678 C114.922278,33.1832241 114.96066,34.7066526 114.998611,36.233174 C115.018449,37.0399548 114.832576,37.2878212 114.002401,37.2811938 C108.527562,37.2401036 103.052292,37.259986 97.5774523,37.259986 C94.9924829,37.2595441 92.4062197,37.2931232 89.8216816,37.23922 C89.044552,37.2228723 88.9837444,37.4901792 89.1389978,38.1423197 C90.0373113,41.9151027 93.1165041,44.5431053 97.119886,44.966378 C98.731934,45.1369243 100.325438,45.114391 101.920667,44.8077612 C104.286988,44.3526767 106.14356,43.1235067 107.408875,41.0248161 C107.708169,40.5286414 107.957868,40.4407173 108.484436,40.6444008 C110.097347,41.2669387 111.733545,41.8267368 113.383544,42.4192303 L113.383544,42.4192303 Z" id="Fill-6" fill="#172E52"></path>
                <path d="M126.611155,23.1072271 C128.017626,20.878029 129.826256,19.497257 132.090722,18.7206275 C137.140859,16.989628 146.027732,18.1668302 149.74672,24.5624224 C151.286523,27.2105802 151.960538,30.0828835 151.974391,33.1206694 C151.999066,38.4620768 151.966166,43.8039219 151.999932,49.145767 C152.00426,49.8606689 151.804264,50.0152068 151.134577,49.9955065 C149.425946,49.9455991 147.714285,49.9508525 146.005221,49.9937554 C145.398304,50.00864 145.246791,49.8282729 145.249822,49.2245682 C145.27493,44.5932471 145.266272,39.9614883 145.262809,35.3297295 C145.261077,33.2620738 145.237268,31.1917914 144.537279,29.2125682 C142.863279,24.4805567 137.685006,22.3038927 132.786815,24.2572867 C129.004191,25.7658917 126.783014,29.2856782 126.771326,33.844327 C126.758339,38.9086168 126.750114,43.9724689 126.787343,49.0358831 C126.793403,49.8111993 126.600333,50.0252759 125.834544,49.9976954 C124.126779,49.9359678 122.414685,49.9526036 120.705188,49.992442 C120.130738,50.0060133 119.999138,49.8339641 120.000004,49.2679089 C120.017753,39.26366 120.016887,29.2594111 120.001736,19.2551622 C120.00087,18.7368255 120.132037,18.5748453 120.655405,18.5862277 C122.242826,18.6199371 123.831545,18.6190615 125.418966,18.5871033 C125.936707,18.5761586 126.069172,18.7503968 126.115059,19.2573512 C126.223715,20.4713273 126.420682,21.6769855 126.611155,23.1072271" id="Fill-8" fill="#172E52"></path>
                <g id="Group-12" transform="translate(0.000000, 7.000000)">
                    <mask id="mask-4" fill="white">
                        <use xlink:href="#path-3"></use>
                    </mask>
                    <g id="Clip-11"></g>
                    <path d="M14.9081471,0.39860625 C18.2359412,7.49879375 22.7703529,13.3796687 29.7612353,17.2349188 C19.9424118,25.3081063 10.0463824,33.4438562 0.150794118,41.5800438 C0.1005,41.5454812 0.0502058824,41.5113563 -8.82352941e-05,41.4767937 C4.9605,27.8079813 9.92152941,14.1391687 14.9081471,0.39860625" id="Fill-10" fill="#172E52" mask="url(#mask-4)"></path>
                </g>
                <path d="M61.3617257,23.0408678 C62.9163886,20.3415445 65.2152814,18.9722085 67.9967017,18.3780426 C72.0928541,17.5023146 75.9388564,18.1318944 79.4680612,20.4355443 C79.9981306,20.7818132 80.1696367,21.0642496 79.8101848,21.6715318 C79.0890593,22.8909054 78.4230291,24.1452557 77.8072067,25.4197175 C77.5037386,26.0471113 77.2602532,26.008637 76.7364043,25.6540611 C72.6220349,22.8686078 67.1880459,23.4981876 64.0107397,27.1278899 C62.5000641,28.8539878 61.831368,30.9084291 61.8251476,33.1661721 C61.8113738,38.4677585 61.8087079,43.769345 61.8353669,49.0704942 C61.8389214,49.7560366 61.7185117,50.0275429 60.9378479,49.9978127 C59.1863528,49.9317943 57.4290817,49.9571524 55.6758093,49.9890686 C55.1395195,49.9986872 54.9991156,49.8373573 55.0000042,49.3188284 C55.0142223,39.3015146 55.0133337,29.2842007 55.0022258,19.2668868 C55.0017814,18.815688 55.075538,18.6145722 55.6038301,18.6259396 C57.1691566,18.6613535 58.7367047,18.6569814 60.3024755,18.6276884 C60.7623429,18.6193815 60.8578709,18.7684695 60.8960821,19.1956219 C61.0036067,20.4058141 61.1826662,21.6098854 61.3617257,23.0408678" id="Fill-13" fill="#172E52"></path>
                <path d="M31.9999271,20.1687834 C32.0063735,21.9292995 31.5864989,22.2775286 30.2551053,21.8130763 C27.7676599,20.9466858 25.958804,19.1016439 24.1336173,17.2843369 C23.8654477,17.0175521 24.0614178,16.8520222 24.1976514,16.6613986 C25.2325112,15.2099304 26.2725282,13.7624243 27.3052392,12.3091951 C27.4788618,12.0653027 27.6266989,11.831976 27.9253815,12.1665577 C30.0432341,14.5412072 31.7141373,17.1456616 31.9999271,20.1687834" id="Fill-15" fill="#172E52"></path>
                <g id="Group-19" transform="translate(180.000000, 60.000000)">
                    <mask id="mask-6" fill="white">
                        <use xlink:href="#path-5"></use>
                    </mask>
                    <g id="Clip-18"></g>
                    <path d="M9.83031818,5.85004545 L9.83077273,5.8255 C9.83304545,5.69004545 9.83531818,5.53731818 9.83031818,5.36140909 C9.81486364,4.80868182 9.72804545,4.29959091 9.56577273,3.80504545 L9.56077273,3.7905 C8.88259091,1.8405 7.04622727,0.467318182 4.98986364,0.370045455 L4.92940909,0.364590909 L4.58395455,0.367318182 L4.5435,0.373227273 C3.35440909,0.444590909 2.23895455,0.957318182 1.4035,1.81640909 C0.527136364,2.71640909 0.0448636364,3.90231818 0.0448636364,5.15595455 C0.0448636364,7.79731818 2.19395455,9.94731818 4.83577273,9.94731818 C5.63213636,9.94731818 6.42122727,9.74640909 7.11804545,9.36731818 C7.14440909,9.35368182 7.16531818,9.34277273 7.18577273,9.33095455 L7.24577273,9.29413636 C7.61440909,9.05959091 7.85395455,8.68731818 7.9035,8.27368182 C7.94713636,7.90459091 7.84440909,7.53959091 7.61440909,7.24731818 C7.38395455,6.95504545 7.0535,6.76959091 6.68395455,6.72595455 C6.62940909,6.71959091 6.57395455,6.71595455 6.51940909,6.71595455 C6.31759091,6.71595455 6.12486364,6.76231818 5.89168182,6.8655 C5.70395455,6.94868182 5.14759091,7.16322727 4.83577273,7.16322727 C3.72895455,7.16322727 2.8285,6.26231818 2.8285,5.15595455 C2.8285,4.06004545 3.72940909,3.15913636 4.83668182,3.14822727 C5.41440909,3.14368182 5.92577273,3.4405 6.17986364,3.61868182 C6.27122727,3.69095455 6.38122727,3.72959091 6.4935,3.72959091 C6.69622727,3.72959091 6.87759091,3.60777273 6.95440909,3.42004545 C6.97940909,3.35959091 6.99168182,3.29640909 6.99168182,3.23095455 C6.99168182,3.08277273 6.92622727,2.94322727 6.81168182,2.84822727 L6.78759091,2.82913636 C6.7835,2.82686364 6.77804545,2.82322727 6.77213636,2.81959091 L6.76395455,2.81322727 C6.13668182,2.36959091 5.48486364,2.14731818 4.83531818,2.15322727 C3.17986364,2.1655 1.8335,3.51186364 1.8335,5.15595455 C1.8335,6.81095455 3.18031818,8.15777273 4.83577273,8.15777273 C4.96804545,8.15777273 5.10213636,8.14913636 5.23486364,8.13140909 C5.59440909,8.08322727 5.91531818,7.94004545 6.22531818,7.80095455 L6.35395455,7.74459091 C6.36713636,7.7405 6.37531818,7.73777273 6.38304545,7.73504545 L6.39577273,7.73095455 C6.40486364,7.72822727 6.4135,7.7255 6.42259091,7.72322727 L6.43531818,7.72004545 C6.44577273,7.71777273 6.45531818,7.71595455 6.46486364,7.7155 L6.47486364,7.71368182 C6.50759091,7.71004545 6.53759091,7.7105 6.56668182,7.71413636 C6.67622727,7.72686364 6.77622727,7.78413636 6.84259091,7.87140909 C6.90531818,7.95413636 6.93122727,8.05413636 6.91622727,8.15322727 C6.89031818,8.31868182 6.74259091,8.43231818 6.65713636,8.48504545 C6.35668182,8.67004545 5.99077273,8.80140909 5.53713636,8.88686364 C5.30577273,8.93004545 5.06986364,8.95231818 4.83577273,8.95231818 C2.74213636,8.95231818 1.03940909,7.24913636 1.03940909,5.15595455 C1.03940909,3.08459091 2.72259091,1.38186364 4.79168182,1.36004545 C6.61395455,1.37868182 8.22077273,2.62004545 8.70122727,4.37822727 L8.70304545,4.38504545 C8.70940909,4.4105 8.71622727,4.43640909 8.72213636,4.46186364 C8.82486364,4.90822727 8.83122727,5.41231818 8.8335,5.57777273 C8.83395455,6.67095455 8.83531818,9.40140909 8.83531818,9.44004545 C8.83531818,9.71595455 9.0585,9.93913636 9.33304545,9.93913636 C9.60804545,9.93913636 9.83168182,9.71595455 9.83168182,9.4405 L9.83031818,5.85004545 Z" id="Fill-17" fill="#172E52" mask="url(#mask-6)"></path>
                </g>
                <path d="M57,61 L58.3764124,61 L59.0146606,62.9580534 C59.0356709,63.016769 59.0566813,63.0811385 59.0776917,63.1507273 C59.0982351,63.220316 59.1234476,63.2959938 59.1528621,63.3777606 C59.3905127,64.0853912 59.5529928,64.680375 59.6407694,65.1618422 C59.7159399,64.680375 59.7780372,64.3437394 59.8289289,64.1536752 L60.0287609,63.3486203 L60.1034644,63.0341661 L60.6417966,61 L62,61 L60.3168363,66.1295607 L60.3168363,70 L59.0146606,70 L59.0146606,66.1295607 L57,61 Z" id="Fill-20" fill="#172E52"></path>
                <path d="M83,61.2615638 L83,62.3243523 C82.6649877,62.1755535 82.3852641,62.1017899 82.1589551,62.1017899 C81.8487759,62.1017899 81.5831088,62.1713142 81.3614853,62.3095148 C81.1389247,62.4485634 80.9561907,62.6609515 80.8114092,62.9483749 C80.6670962,63.2362223 80.5602671,63.6016486 80.4913904,64.0429581 C80.4225138,64.4842675 80.3878412,65.0052756 80.3878412,65.6081017 C80.3878412,67.7743759 81.0011714,68.8579369 82.2283003,68.8579369 C82.44149,68.8579369 82.6987232,68.7968912 83,68.6756477 L83,69.7613283 C82.6860724,69.9207254 82.3341923,70 81.9452969,70 C79.9816095,70 79,68.549317 79,65.6475271 C79,64.078992 79.2398969,62.9131889 79.7187537,62.1475742 C80.1985475,61.3823834 80.9318262,61 81.9199953,61 C82.2845262,61 82.6443716,61.0877532 83,61.2615638" id="Fill-22" fill="#172E52"></path>
                <g id="Group-26" transform="translate(91.000000, 60.000000)">
                    <mask id="mask-8" fill="white">
                        <use xlink:href="#path-7"></use>
                    </mask>
                    <g id="Clip-25"></g>
                    <path d="M3.65754545,5.546 C3.65754545,3.91781818 3.58436364,2.83781818 3.43845455,2.30509091 C3.29163636,1.76963636 2.99345455,1.501 2.54254545,1.501 C2.09209091,1.501 1.79118182,1.74690909 1.64072727,2.23872727 C1.49481818,2.73372727 1.42163636,3.72918182 1.42163636,5.22327273 C1.42163636,6.60009091 1.49845455,7.55509091 1.653,8.08690909 C1.81118182,8.59009091 2.108,8.84236364 2.54254545,8.84236364 C2.96890909,8.84236364 3.26163636,8.60645455 3.41981818,8.13509091 C3.57845455,7.66872727 3.65754545,6.80554545 3.65754545,5.546 M4.98527273,5.41236364 C4.98527273,7.07327273 4.80072727,8.25372727 4.43118182,8.95190909 C4.06163636,9.65054545 3.44209091,10.0000909 2.573,10.0000909 C1.65936364,10.0000909 1.01572727,9.62418182 0.641636364,8.87281818 C0.272545455,8.13736364 0.0875454545,6.83190909 0.0875454545,4.95554545 C0.0875454545,3.28236364 0.270272727,2.09872727 0.635727273,1.40418182 C1.00527273,0.705545455 1.63072727,0.356 2.51209091,0.356 C3.29981818,0.356 3.88481818,0.626454545 4.26709091,1.16645455 C4.51890909,1.52736364 4.70118182,2.04145455 4.81527273,2.70781818 C4.92845455,3.32509091 4.98527273,4.22645455 4.98527273,5.41236364" id="Fill-24" fill="#172E52" mask="url(#mask-8)"></path>
                </g>
                <path d="M104.725645,61 L105.742486,61 L106.519719,64.6716764 C106.615221,65.1305272 106.701769,65.5902479 106.779791,66.0508384 C106.857813,66.5109941 106.929439,66.9942009 106.993818,67.4991543 C107.001492,67.4334799 107.007887,67.3817233 107.010872,67.3451892 C107.014709,67.3082202 107.018973,67.2821244 107.02281,67.2664669 L107.188233,66.2343788 L107.337028,65.2549171 L107.46877,64.6081767 L108.159881,61 L109.188659,61 L110,70 L108.862503,70 L108.662545,66.9454888 C108.654871,66.7902189 108.648049,66.6562606 108.642933,66.5431789 C108.636964,66.4305321 108.63398,66.3370222 108.63398,66.263954 L108.582392,65.0570241 L108.553826,63.9496931 C108.553826,63.9414295 108.5534,63.9249021 108.551268,63.8992413 C108.549563,63.8744503 108.546579,63.8400909 108.542741,63.7974677 L108.514176,63.9783985 C108.483479,64.1923839 108.456193,64.3794037 108.431038,64.538153 C108.406736,64.6973373 108.384566,64.8317305 108.365381,64.940463 L108.217011,65.7624801 L108.159881,66.0708452 L107.416755,70 L106.617352,70 L105.919847,66.6079834 C105.824344,66.1600058 105.739928,65.7068091 105.665317,65.2462185 C105.591132,64.7860629 105.523769,64.303291 105.462801,63.7974677 L105.120017,70 L104,70 L104.725645,61 Z" id="Fill-27" fill="#172E52"></path>
                <path d="M119.276119,64.9696032 C119.80341,64.9696032 120.167296,64.8686996 120.368234,64.6660223 C120.572377,64.4607355 120.674906,64.0949596 120.674906,63.5704344 C120.674906,63.0341661 120.576954,62.6418596 120.380593,62.3930798 C120.183774,62.1443 119.875729,62.0199101 119.454629,62.0199101 L119.276119,62.0199101 L119.276119,64.9696032 Z M118,61 L119.681199,61 C120.490903,61 121.079529,61.1939786 121.447992,61.5823709 C121.815997,61.9751124 122,62.5970618 122,63.4482192 C122,64.6451457 121.629706,65.4184507 120.889575,65.7685691 C120.517451,65.9273184 119.979632,66.0077804 119.276119,66.0077804 L119.276119,70 L118,70 L118,61 Z" id="Fill-29" fill="#172E52"></path>
                <path d="M132.226982,67.3069154 L131.949329,65.8733871 C131.764378,64.8978398 131.613626,63.8557483 131.497075,62.7484173 C131.440824,63.2890349 131.368374,63.8357416 131.279723,64.389407 C131.191072,64.9430725 131.087121,65.5306625 130.96607,66.1530469 L130.736567,67.3069154 L132.226982,67.3069154 Z M131.02637,61 L132.00333,61 L134,70 L132.757538,70 L132.407884,68.2459286 L130.562416,68.2459286 L130.206462,70 L129,70 L131.02637,61 Z" id="Fill-31" fill="#172E52"></path>
                <path d="M144.772228,59.0978694 L145.444145,59.0978694 C145.444145,59.4696012 145.367876,59.7589167 145.216166,59.964099 C145.064456,60.1688519 144.85513,60.2714431 144.589016,60.2714431 C144.444352,60.2714431 144.230881,60.194607 143.949845,60.0413642 C143.723938,59.9224616 143.553575,59.8632248 143.438756,59.8632248 C143.301554,59.8632248 143.225699,59.972684 143.210777,60.191173 L142.555026,60.191173 C142.555026,60.0151799 142.574922,59.8529228 142.613472,59.704831 C142.652435,59.5567392 142.70715,59.4313978 142.777617,59.3279482 C142.847668,59.2244986 142.933057,59.14337 143.033368,59.0867088 C143.133264,59.0291891 143.243938,59 143.366632,59 C143.492228,59 143.727668,59.0806993 144.072124,59.2420979 C144.312953,59.360142 144.481244,59.4202373 144.577409,59.4202373 C144.70715,59.4202373 144.772228,59.3129244 144.772228,59.0978694 L144.772228,59.0978694 Z M142,61.1174979 L143.07772,61.1174979 L144.227979,64.6609693 C144.560829,65.6624132 144.85513,66.730391 145.110881,67.8657613 C145.018446,67.1793881 144.949637,66.5582611 144.905285,66.0019511 C144.861347,65.4456411 144.838549,64.9219543 144.838549,64.4308905 L144.838549,61.1174979 L146,61.1174979 L146,70 L144.916477,70 L143.621969,66.0019511 C143.50342,65.6297901 143.391503,65.2481854 143.285803,64.8571373 C143.180104,64.4656599 143.083109,64.0552954 142.994404,63.6256146 C142.986528,63.5723874 142.974922,63.5067119 142.958342,63.4303052 C142.941347,63.3534691 142.921865,63.2654726 142.899896,63.1658862 C142.911088,63.2654726 142.920207,63.3504644 142.927668,63.4212909 C142.934715,63.4925466 142.940518,63.5530711 142.944249,63.602435 L143.005181,64.5060095 L143.066528,65.6044642 C143.070674,65.6662764 143.072746,65.7409662 143.074819,65.8289628 C143.076477,65.9178178 143.07772,66.0174042 143.07772,66.1285803 L143.139067,70 L142,70 L142,61.1174979 Z" id="Fill-33" fill="#172E52"></path>
                <mask id="mask-10" fill="white">
                    <use xlink:href="#path-9"></use>
                </mask>
                <g id="Clip-36"></g>
                <polygon id="Fill-35" fill="#172E52" mask="url(#mask-10)" points="154 70 155 70 155 61 154 61"></polygon>
                <path d="M166.226982,67.3069154 L165.949329,65.8733871 C165.764378,64.8978398 165.613626,63.8557483 165.497075,62.7484173 C165.440824,63.2890349 165.368374,63.8357416 165.279723,64.389407 C165.191072,64.9430725 165.087121,65.5306625 164.96607,66.1530469 L164.736567,67.3069154 L166.226982,67.3069154 Z M165.02637,61 L166.00333,61 L168,70 L166.757538,70 L166.407884,68.2459286 L164.562416,68.2459286 L164.206462,70 L163,70 L165.02637,61 Z" id="Fill-37" fill="#172E52" mask="url(#mask-10)"></path>
            </g>
        </g>
    </g>
</svg>