<?xml version="1.0" encoding="UTF-8"?>
<svg width="31px" height="31px" viewBox="0 0 31 31" version="1.1" xmlns="http://www.w3.org/2000/svg" xmlns:xlink="http://www.w3.org/1999/xlink">
    <!-- Generator: Sketch 54.1 (76490) - https://sketchapp.com -->
    <title>artboard-2-line</title>
    <desc>Created with Sketch.</desc>
    <g id="Page-1" stroke="none" stroke-width="1" fill="none" fill-rule="evenodd">
        <g id="Desktop-HD" transform="translate(-645.000000, -3059.000000)">
            <g id="artboard-2-line" transform="translate(643.000000, 3057.000000)">
                <polygon id="Path" points="0 0 35 0 35 35 0 35"></polygon>
                <path d="M11.6666667,11.6666667 L11.6666667,23.3333333 L23.3333333,23.3333333 L23.3333333,11.6666667 L11.6666667,11.6666667 Z M8.75,8.75 L26.25,8.75 L26.25,26.25 L8.75,26.25 L8.75,8.75 Z M8.75,2.91666667 L11.6666667,2.91666667 L11.6666667,7.29166667 L8.75,7.29166667 L8.75,2.91666667 Z M8.75,27.7083333 L11.6666667,27.7083333 L11.6666667,32.0833333 L8.75,32.0833333 L8.75,27.7083333 Z M2.91666667,8.75 L7.29166667,8.75 L7.29166667,11.6666667 L2.91666667,11.6666667 L2.91666667,8.75 Z M2.91666667,23.3333333 L7.29166667,23.3333333 L7.29166667,26.25 L2.91666667,26.25 L2.91666667,23.3333333 Z M27.7083333,8.75 L32.0833333,8.75 L32.0833333,11.6666667 L27.7083333,11.6666667 L27.7083333,8.75 Z M27.7083333,23.3333333 L32.0833333,23.3333333 L32.0833333,26.25 L27.7083333,26.25 L27.7083333,23.3333333 Z M23.3333333,2.91666667 L26.25,2.91666667 L26.25,7.29166667 L23.3333333,7.29166667 L23.3333333,2.91666667 Z M23.3333333,27.7083333 L26.25,27.7083333 L26.25,32.0833333 L23.3333333,32.0833333 L23.3333333,27.7083333 Z" id="Shape" fill="#00C4FF" fill-rule="nonzero"></path>
            </g>
        </g>
    </g>
</svg>