<?xml version="1.0" encoding="UTF-8"?>
<svg width="30px" height="31px" viewBox="0 0 30 31" version="1.1" xmlns="http://www.w3.org/2000/svg" xmlns:xlink="http://www.w3.org/1999/xlink">
    <!-- Generator: Sketch 54.1 (76490) - https://sketchapp.com -->
    <title>Group 10</title>
    <desc>Created with Sketch.</desc>
    <defs>
        <polygon id="path-1" points="0 0.355058065 29.7293913 0.355058065 29.7293913 14 0 14"></polygon>
    </defs>
    <g id="Page-1" stroke="none" stroke-width="1" fill="none" fill-rule="evenodd">
        <g id="Desktop-HD" transform="translate(-814.000000, -3428.000000)">
            <g id="Group-10" transform="translate(814.000000, 3428.000000)">
                <path d="M28,29 L2,29 L2,25.2884607 C2,21.8158829 4.69694011,19 8.02379731,19 L21.9762027,19 C25.3030599,19 28,21.8158829 28,25.2884607 L28,29 Z" id="Fill-1" fill="#FFFFFF"></path>
                <g id="Group-5" transform="translate(0.000000, 17.000000)">
                    <mask id="mask-2" fill="white">
                        <use xlink:href="#path-1"></use>
                    </mask>
                    <g id="Clip-4"></g>
                    <path d="M3.64591304,10.4093161 L26.0833043,10.4093161 C25.292,6.71602581 22.1124348,3.94583226 18.3215652,3.94583226 L11.408087,3.94583226 C7.61721739,3.94583226 4.43765217,6.71602581 3.64591304,10.4093161 M28.0011304,14.0000903 L1.72852174,14.0000903 C0.77373913,14.0000903 -0.000173913043,13.1962194 -0.000173913043,12.204929 C-0.000173913043,5.67144516 5.11765217,0.355058065 11.408087,0.355058065 L18.3215652,0.355058065 C24.612,0.355058065 29.7293913,5.67144516 29.7293913,12.204929 C29.7293913,13.1962194 28.9554783,14.0000903 28.0011304,14.0000903" id="Fill-3" fill="#00C4FF" mask="url(#mask-2)"></path>
                </g>
                <path d="M21,7 C21,10.314049 18.3135057,13 14.999778,13 C11.6860504,13 9,10.314049 9,7 C9,3.68639491 11.6860504,1 14.999778,1 C18.3135057,1 21,3.68639491 21,7" id="Fill-6" fill="#FFFFFF"></path>
                <path d="M14.5,3.6360518 C12.2442545,3.6360518 10.4091299,5.59357402 10.4091299,7.99977132 C10.4091299,10.406426 12.2442545,12.3639482 14.5,12.3639482 C16.7557455,12.3639482 18.5908701,10.406426 18.5908701,7.99977132 C18.5908701,5.59357402 16.7557455,3.6360518 14.5,3.6360518 M14.5,16 C10.3645381,16 7,12.4115142 7,7.99977132 C7,3.58848584 10.3645381,0 14.5,0 C18.6354619,0 22,3.58848584 22,7.99977132 C22,12.4115142 18.6354619,16 14.5,16" id="Fill-8" fill="#00C4FF"></path>
            </g>
        </g>
    </g>
</svg>