<?xml version="1.0" encoding="UTF-8"?>
<svg width="23px" height="31px" viewBox="0 0 23 31" version="1.1" xmlns="http://www.w3.org/2000/svg" xmlns:xlink="http://www.w3.org/1999/xlink">
    <!-- Generator: Sketch 54.1 (76490) - https://sketchapp.com -->
    <title>Group 9</title>
    <desc>Created with Sketch.</desc>
    <defs>
        <polygon id="path-1" points="0 0.3441 22.7813051 0.3441 22.7813051 31 0 31"></polygon>
    </defs>
    <g id="Page-1" stroke="none" stroke-width="1" fill="none" fill-rule="evenodd">
        <g id="Desktop-HD" transform="translate(-220.000000, -3427.000000)">
            <g id="Group-9" transform="translate(220.000000, 3427.000000)">
                <g id="Group-8">
                    <mask id="mask-2" fill="white">
                        <use xlink:href="#path-1"></use>
                    </mask>
                    <g id="Clip-3"></g>
                    <path d="M3.09954237,27.9189875 L19.6821525,27.9189875 L19.6821525,8.3548875 L3.09954237,8.3548875 L3.09954237,27.9189875 Z M21.2317288,31 L1.54957627,31 C0.693898305,31 0,30.31025 0,29.4593 L0,6.814575 C0,5.963625 0.693898305,5.273875 1.54957627,5.273875 L21.2317288,5.273875 C22.0874068,5.273875 22.7813051,5.963625 22.7813051,6.814575 L22.7813051,29.4593 C22.7813051,30.31025 22.0874068,31 21.2317288,31 L21.2317288,31 Z" id="Fill-2" fill="#00C4FF" mask="url(#mask-2)"></path>
                    <path d="M13.9477458,4.34957125 L13.9477458,1.88468375 L8.98871186,1.88468375 L8.98871186,4.34957125 L8.36849153,4.34957125 C6.99940678,4.34957125 5.88916949,5.45317125 5.88916949,6.81445875 C5.88916949,8.17574625 6.99940678,9.27895875 8.36849153,9.27895875 L13.9477458,9.27895875 C15.3172203,9.27895875 16.4274576,8.17574625 16.4274576,6.81445875 C16.4274576,5.45317125 15.3172203,4.34957125 13.9477458,4.34957125" id="Fill-4" fill="#FFFFFF" mask="url(#mask-2)"></path>
                    <path d="M8.36868644,5.8899225 C7.85605932,5.8899225 7.43894068,6.3045475 7.43894068,6.8144975 C7.43894068,7.32406 7.85605932,7.738685 8.36868644,7.738685 L13.9479407,7.738685 C14.4605678,7.738685 14.8776864,7.32406 14.8776864,6.8144975 C14.8776864,6.3045475 14.4605678,5.8899225 13.9479407,5.8899225 C13.0918729,5.8899225 12.3979746,5.20056 12.3979746,4.34961 L12.3979746,3.4254225 L10.5380932,3.4254225 L10.5380932,4.34961 C10.5380932,5.20056 9.84458475,5.8899225 8.98851695,5.8899225 L8.36868644,5.8899225 Z M13.9479407,10.8196975 L8.36868644,10.8196975 C6.14704237,10.8196975 4.33939831,9.02286 4.33939831,6.8144975 C4.33939831,4.923885 5.66404237,3.335135 7.43894068,2.916635 L7.43894068,1.8847225 C7.43894068,1.0337725 8.13283898,0.3440225 8.98851695,0.3440225 L13.9479407,0.3440225 C14.8036186,0.3440225 15.4975169,1.0337725 15.4975169,1.8847225 L15.4975169,3.1169725 C16.9527542,3.72186 17.9772288,5.1513475 17.9772288,6.8144975 C17.9772288,9.02286 16.1695847,10.8196975 13.9479407,10.8196975 L13.9479407,10.8196975 Z" id="Fill-5" fill="#00C4FF" mask="url(#mask-2)"></path>
                    <path d="M15.6525136,25.7373625 L6.97371695,25.7373625 C6.11803898,25.7373625 5.42414068,25.0383125 5.42414068,24.1873625 C5.42414068,23.3364125 6.11803898,22.6373625 6.97371695,22.6373625 L15.6525136,22.6373625 C16.5085814,22.6373625 17.2024797,23.3364125 17.2024797,24.1873625 C17.2024797,25.0383125 16.5085814,25.7373625 15.6525136,25.7373625" id="Fill-6" fill="#00C4FF" mask="url(#mask-2)"></path>
                    <path d="M15.6525136,20.6998625 L6.97371695,20.6998625 C6.11803898,20.6998625 5.42414068,20.0008125 5.42414068,19.1498625 C5.42414068,18.2989125 6.11803898,17.5998625 6.97371695,17.5998625 L15.6525136,17.5998625 C16.5085814,17.5998625 17.2024797,18.2989125 17.2024797,19.1498625 C17.2024797,20.0008125 16.5085814,20.6998625 15.6525136,20.6998625" id="Fill-7" fill="#00C4FF" mask="url(#mask-2)"></path>
                </g>
            </g>
        </g>
    </g>
</svg>