<?xml version="1.0" encoding="UTF-8"?>
<svg width="31px" height="31px" viewBox="0 0 31 31" version="1.1" xmlns="http://www.w3.org/2000/svg" xmlns:xlink="http://www.w3.org/1999/xlink">
    <!-- Generator: Sketch 54.1 (76490) - https://sketchapp.com -->
    <title>focus-3-line</title>
    <desc>Created with Sketch.</desc>
    <g id="Page-1" stroke="none" stroke-width="1" fill="none" fill-rule="evenodd">
        <g id="Desktop-HD" transform="translate(-217.000000, -3661.000000)">
            <g id="focus-3-line" transform="translate(215.000000, 3659.000000)">
                <polygon id="Path" points="0 0 34 0 34 34 0 34"></polygon>
                <path d="M18.9090909,2 L18.9105,6.31463636 C24.0182315,6.96039389 28.0403424,10.9830846 28.6853636,16.0909091 L33,16.0909091 L33,18.9090909 L28.6853636,18.9105 C28.0397476,24.017776 24.017776,28.0397476 18.9105,28.6853636 L18.9090909,33 L16.0909091,33 L16.0909091,28.6853636 C10.9830846,28.0403424 6.96039389,24.0182315 6.31463636,18.9105 L2,18.9090909 L2,16.0909091 L6.31463636,16.0909091 C6.95979907,10.9826291 10.9826291,6.95979907 16.0909091,6.31463636 L16.0909091,2 L18.9090909,2 Z M17.5,9.04545455 C12.8306835,9.04545455 9.04545455,12.8306835 9.04545455,17.5 C9.04545455,22.1693165 12.8306835,25.9545455 17.5,25.9545455 C22.1693165,25.9545455 25.9545455,22.1693165 25.9545455,17.5 C25.9545455,12.8306835 22.1693165,9.04545455 17.5,9.04545455 L17.5,9.04545455 Z M17.5,14.6818182 C19.0564388,14.6818182 20.3181818,15.9435612 20.3181818,17.5 C20.3181818,19.0564388 19.0564388,20.3181818 17.5,20.3181818 C15.9435612,20.3181818 14.6818182,19.0564388 14.6818182,17.5 C14.6818182,15.9435612 15.9435612,14.6818182 17.5,14.6818182 Z" id="Shape" fill="#00C4FF" fill-rule="nonzero"></path>
            </g>
        </g>
    </g>
</svg>