<?xml version="1.0" encoding="UTF-8"?>
<svg width="39px" height="31px" viewBox="0 0 39 31" version="1.1" xmlns="http://www.w3.org/2000/svg" xmlns:xlink="http://www.w3.org/1999/xlink">
    <!-- Generator: Sketch 54.1 (76490) - https://sketchapp.com -->
    <title>Group 9</title>
    <desc>Created with Sketch.</desc>
    <defs>
        <polygon id="path-1" points="0 31 39 31 39 0 0 0"></polygon>
    </defs>
    <g id="Page-1" stroke="none" stroke-width="1" fill="none" fill-rule="evenodd">
        <g id="Desktop-HD" transform="translate(-809.000000, -3661.000000)">
            <g id="Group-9" transform="translate(809.000000, 3661.000000)">
                <path d="M26.0872997,21.9125767 L34.9121863,21.9125767 L34.9121863,16.0351386 C34.9121863,14.4101424 33.5900212,13.0874233 31.9650741,13.0874233 L26.0872997,13.0874233 L26.0872997,21.9125767 Z M36.9560931,26 L24.0439069,26 C22.9150287,26 22,25.0849436 22,23.9565454 L22,11.0434546 C22,9.91454232 22.9150287,9 24.0439069,9 L31.9650741,9 C35.843665,9 39,12.1559164 39,16.0351386 L39,23.9565454 C39,25.0849436 38.0849713,26 36.9560931,26 L36.9560931,26 Z" id="Fill-1" fill="#00C4FF"></path>
                <mask id="mask-2" fill="white">
                    <use xlink:href="#path-1"></use>
                </mask>
                <g id="Clip-4"></g>
                <path d="M4.039195,21.961313 L21.960805,21.961313 L21.960805,4.039195 L4.039195,4.039195 L4.039195,21.961313 Z M23.9806565,26 L2.01934349,26 C0.904259476,26 0,25.0962485 0,23.9806565 L0,2.01934349 C0,0.903751465 0.904259476,0 2.01934349,0 L23.9806565,0 C25.0957405,0 26,0.903751465 26,2.01934349 L26,23.9806565 C26,25.0962485 25.0957405,26 23.9806565,26 L23.9806565,26 Z" id="Fill-3" fill="#00C4FF" mask="url(#mask-2)"></path>
                <path d="M16,24.5 C16,26.9853431 13.9854549,29 11.5002498,29 C9.01504469,29 7,26.9853431 7,24.5 C7,22.0146569 9.01504469,20 11.5002498,20 C13.9854549,20 16,22.0146569 16,24.5" id="Fill-5" fill="#FFFFFF" mask="url(#mask-2)"></path>
                <path d="M11.4997496,21.9808588 C10.110773,21.9808588 8.98066479,23.1103794 8.98066479,24.4997497 C8.98066479,25.88912 10.110773,27.0191412 11.4997496,27.0191412 C12.8887263,27.0191412 14.0188345,25.88912 14.0188345,24.4997497 C14.0188345,23.1103794 12.8887263,21.9808588 11.4997496,21.9808588 M11.4997496,31 C7.91564919,31 5,28.0840747 5,24.4997497 C5,20.9154246 7.91564919,18 11.4997496,18 C15.0838501,18 18,20.9154246 18,24.4997497 C18,28.0840747 15.0838501,31 11.4997496,31" id="Fill-6" fill="#00C4FF" mask="url(#mask-2)"></path>
                <path d="M32,24.5 C32,26.9853431 29.9854549,29 27.5002498,29 C25.0150447,29 23,26.9853431 23,24.5 C23,22.0146569 25.0150447,20 27.5002498,20 C29.9854549,20 32,22.0146569 32,24.5" id="Fill-7" fill="#FFFFFF" mask="url(#mask-2)"></path>
                <path d="M27.5,21.9808588 C26.1109699,21.9808588 24.9808181,23.1103794 24.9808181,24.4997497 C24.9808181,25.88912 26.1109699,27.0191412 27.5,27.0191412 C28.8890301,27.0191412 30.0191819,25.88912 30.0191819,24.4997497 C30.0191819,23.1103794 28.8890301,21.9808588 27.5,21.9808588 M27.5,31 C23.9157615,31 21,28.0840747 21,24.4997497 C21,20.9154246 23.9157615,18 27.5,18 C31.0842385,18 34,20.9154246 34,24.4997497 C34,28.0840747 31.0842385,31 27.5,31" id="Fill-8" fill="#00C4FF" mask="url(#mask-2)"></path>
            </g>
        </g>
    </g>
</svg>