<?xml version="1.0" encoding="UTF-8"?>
<svg width="24px" height="28px" viewBox="0 0 24 28" version="1.1" xmlns="http://www.w3.org/2000/svg" xmlns:xlink="http://www.w3.org/1999/xlink">
    <!-- Generator: Sketch 54.1 (76490) - https://sketchapp.com -->
    <title>map-pin-line</title>
    <desc>Created with Sketch.</desc>
    <g id="Page-1" stroke="none" stroke-width="1" fill="none" fill-rule="evenodd">
        <g id="Desktop-HD" transform="translate(-112.000000, -7242.000000)">
            <g id="map-pin-line" transform="translate(109.000000, 7240.000000)">
                <polygon id="Path" points="0 0 30 0 30 30 0 30"></polygon>
                <path d="M15,26.125 L21.1875,19.9375 C24.604331,16.5203203 24.6041426,10.980289 21.1870791,7.56334179 C17.7700156,4.14639453 12.2299844,4.14639453 8.81292089,7.56334179 C5.39585741,10.980289 5.39566897,16.5203203 8.8125,19.9375 L15,26.125 Z M15,29.66 L7.045,21.705 C2.6516413,17.3115875 2.65167038,10.1885065 7.04506495,5.7951299 C11.4384595,1.40175327 18.5615405,1.40175327 22.9549351,5.7951299 C27.3483296,10.1885065 27.3483587,17.3115875 22.955,21.705 L15,29.66 L15,29.66 Z M15,16.25 C16.3807119,16.25 17.5,15.1307119 17.5,13.75 C17.5,12.3692881 16.3807119,11.25 15,11.25 C13.6192881,11.25 12.5,12.3692881 12.5,13.75 C12.5,15.1307119 13.6192881,16.25 15,16.25 Z M15,18.75 C12.2385763,18.75 10,16.5114237 10,13.75 C10,10.9885763 12.2385763,8.75 15,8.75 C17.7614237,8.75 20,10.9885763 20,13.75 C20,16.5114237 17.7614237,18.75 15,18.75 Z" id="Shape" fill="#0DB4E6" fill-rule="nonzero"></path>
            </g>
        </g>
    </g>
</svg>