<?xml version="1.0" encoding="UTF-8"?>
<svg width="25px" height="25px" viewBox="0 0 25 25" version="1.1" xmlns="http://www.w3.org/2000/svg" xmlns:xlink="http://www.w3.org/1999/xlink">
    <!-- Generator: Sketch 54.1 (76490) - https://sketchapp.com -->
    <title>phone</title>
    <desc>Created with Sketch.</desc>
    <g id="Page-1" stroke="none" stroke-width="1" fill="none" fill-rule="evenodd">
        <g id="Desktop-HD" transform="translate(-1398.000000, -350.000000)" fill="#FFFFFF" fill-rule="nonzero">
            <g id="Group-30" transform="translate(1380.000000, 340.000000)">
                <g id="phone" transform="translate(18.000000, 10.000000)">
                    <path d="M19.7684319,15.4866089 C19.255874,14.9536902 18.6376341,14.6687633 17.9824055,14.6687633 C17.332461,14.6687633 16.7089369,14.9484138 16.1752427,15.4813326 L14.5054664,17.1434058 C14.3680798,17.0695359 14.2306932,17.0009424 14.0985906,16.9323489 C13.908363,16.8373733 13.7287035,16.7476741 13.5754645,16.6526985 C12.0113704,15.6607309 10.5899469,14.3680072 9.22664871,12.695381 C8.56613598,11.8617062 8.12227141,11.1599419 7.7999412,10.4476248 C8.23323756,10.0518931 8.6348293,9.64033202 9.02585283,9.24460028 C9.17380769,9.09686044 9.32176253,8.94384416 9.46971739,8.79610432 C10.5793787,7.68805544 10.5793787,6.25286833 9.46971739,5.14481945 L8.02715759,3.70435591 C7.86335043,3.54078679 7.69425917,3.37194125 7.53573611,3.20309571 C7.21869,2.87595747 6.88579159,2.53826638 6.54232497,2.22168098 C6.02976709,1.71514435 5.41681128,1.44604677 4.77215086,1.44604677 C4.12749043,1.44604677 3.50396641,1.71514435 2.97555623,2.22168098 C2.97027212,2.22695741 2.97027212,2.22695741 2.96498803,2.23223383 L1.1683934,4.042047 C0.492028362,4.71742917 0.106288927,5.54055119 0.0217432975,6.49558379 C-0.105075147,8.03629937 0.349357611,9.47148648 0.698108333,10.4106898 C1.55413283,12.7164867 2.83288548,14.8534381 4.74044624,17.1434058 C7.05488285,19.9029752 9.83960455,22.082138 13.0206338,23.6175771 C14.2359772,24.1927072 15.8581965,24.8733659 17.6706435,24.9894472 C17.7816096,24.9947235 17.8978598,25 18.0035418,25 C19.2241694,25 20.2492851,24.5620569 21.0524686,23.691447 C21.0577527,23.6808942 21.0683209,23.6756177 21.073605,23.6650649 C21.3483783,23.3326503 21.6654244,23.0318942 21.9983228,22.7100323 C22.2255392,22.493699 22.4580397,22.2668128 22.6852561,22.0293738 C23.2083822,21.4859021 23.4831554,20.8527313 23.4831554,20.2037313 C23.4831554,19.5494548 23.203098,18.9215605 22.6694038,18.3939181 L19.7684319,15.4866089 Z M21.6601403,21.0426826 C21.6548563,21.0426826 21.6548563,21.0479591 21.6601403,21.0426826 C21.4540604,21.2642924 21.2426963,21.4647965 21.0154799,21.6864062 C20.6720133,22.0135445 20.3232626,22.356512 19.9956483,22.7416909 C19.4619539,23.3115446 18.8331458,23.5806422 18.008826,23.5806422 C17.9295644,23.5806422 17.8450188,23.5806422 17.7657572,23.5753657 C16.1963791,23.4751137 14.737967,22.8630486 13.6441578,22.3406827 C10.6533562,20.8949428 8.02715759,18.8424142 5.84482353,16.2411374 C4.04294479,14.0725275 2.83816958,12.0674867 2.0402702,9.91470608 C1.54884873,8.60087665 1.36918927,7.57725055 1.44845079,6.6116651 C1.50129181,5.99432358 1.7390764,5.48251054 2.17765685,5.04456741 L3.97953558,3.24530709 C4.23845656,3.00259162 4.51322986,2.87068104 4.78271906,2.87068104 C5.11561747,2.87068104 5.38510666,3.07118513 5.55419793,3.24003067 C5.55948203,3.24530709 5.56476613,3.25058351 5.57005023,3.25585993 C5.89238044,3.55661606 6.19885835,3.86792503 6.52118856,4.20033969 C6.68499572,4.36918524 6.85408697,4.53803078 7.02317824,4.71215275 L8.46573804,6.15261628 C9.02585283,6.71191714 9.02585283,7.22900661 8.46573804,7.78830748 C8.31249909,7.94132375 8.16454423,8.09434003 8.01130528,8.24207987 C7.56744072,8.69585227 7.14471258,9.11796613 6.68499572,9.52952714 C6.67442751,9.54007998 6.66385931,9.54535641 6.65857521,9.55590926 C6.20414245,10.0096816 6.28868808,10.4529012 6.38380192,10.7536574 C6.38908601,10.7694866 6.39437012,10.7853159 6.39965422,10.8011452 C6.77482545,11.7086899 7.30323563,12.5634705 8.10641911,13.5818201 L8.11170321,13.5870966 C9.57011533,15.3810805 11.1077889,16.7793326 12.8039856,17.8504466 C13.0206338,17.9876336 13.2425661,18.0984384 13.4539301,18.2039669 C13.6441578,18.2989425 13.8238173,18.3886417 13.9770563,18.4836173 C13.9981927,18.4941701 14.0193291,18.5099994 14.0404655,18.5205523 C14.220125,18.6102514 14.3892162,18.6524629 14.5635915,18.6524629 C15.002172,18.6524629 15.2769453,18.3780888 15.3667751,18.2883897 L17.1739379,16.483853 C17.3535974,16.3044545 17.6389388,16.0881212 17.9718373,16.0881212 C18.2994516,16.0881212 18.5689408,16.2939017 18.7327479,16.4733001 C18.738032,16.4785765 18.738032,16.4785765 18.7433161,16.483853 L21.6548563,19.3911622 C22.1991187,19.9293572 22.1991187,20.4833817 21.6601403,21.0426826 Z" id="Shape"></path>
                    <path d="M13.5120553,5.94683578 C14.89649,6.1789984 16.1541062,6.83327487 17.1580855,7.83579528 C18.162065,8.83831569 18.8120094,10.0941044 19.0497941,11.4765273 C19.1079192,11.8247712 19.409113,12.0674867 19.7525796,12.0674867 C19.7948524,12.0674867 19.8318411,12.0622103 19.8741139,12.0569339 C20.2651375,11.9936167 20.5240585,11.6242672 20.4606492,11.2338118 C20.1753077,9.56118568 19.3826924,8.03629937 18.1726331,6.82799845 C16.9625738,5.61969754 15.4354684,4.82823405 13.7604081,4.5433072 C13.3693846,4.47999013 13.0047815,4.73853486 12.9360882,5.12371375 C12.8673949,5.50889265 13.1210318,5.8835187 13.5120553,5.94683578 Z" id="Path"></path>
                    <path d="M24.9891245,11.0280313 C24.5188395,8.27373841 23.2189504,5.76743738 21.2215599,3.77294941 C19.2241694,1.77846143 16.714221,0.480461326 13.9559198,0.0108596604 C13.5701804,-0.0577338414 13.2055774,0.206087319 13.1368841,0.591266214 C13.0734748,0.981721533 13.3323959,1.34579473 13.7234193,1.41438823 C16.1858109,1.83122567 18.4315542,2.9973152 20.2175806,4.77546982 C22.003607,6.55890087 23.1661093,8.80138073 23.5835534,11.2601939 C23.6416785,11.6084378 23.9428723,11.8511534 24.286339,11.8511534 C24.3286118,11.8511534 24.3656005,11.8458769 24.4078733,11.8406006 C24.7936127,11.7825598 25.0578179,11.4132102 24.9891245,11.0280313 Z" id="Path"></path>
                </g>
            </g>
        </g>
    </g>
</svg>