<?xml version="1.0" encoding="UTF-8"?>
<svg width="123px" height="70px" viewBox="0 0 123 70" version="1.1" xmlns="http://www.w3.org/2000/svg" xmlns:xlink="http://www.w3.org/1999/xlink">
    <!-- Generator: Sketch 54.1 (76490) - https://sketchapp.com -->
    <title>Group 12</title>
    <desc>Created with Sketch.</desc>
    <defs>
        <polygon id="path-1" points="6.76753783e-05 0.0681265207 122.84874 0.0681265207 122.84874 69.9999319 6.76753783e-05 69.9999319"></polygon>
    </defs>
    <g id="Page-1" stroke="none" stroke-width="1" fill="none" fill-rule="evenodd" opacity="0.747419085">
        <g id="Desktop-HD" transform="translate(-274.000000, -6026.000000)">
            <g id="Group-12" transform="translate(274.000000, 6026.000000)">
                <path d="M49.3322406,57.1444086 C52.5905589,56.1738861 55.8488772,55.1535075 59.0396656,53.9823892 C62.0278643,52.878192 64.8810031,51.5397711 67.8185543,50.3351923 C73.1534175,48.1267978 78.6571054,46.303032 83.7387314,43.5092457 C86.2373381,42.1373643 88.6008851,40.5479894 90.6605475,38.5738186 C92.9565645,36.3988846 94.9655794,33.9729968 97.1096542,31.6642207 C99.4225537,29.1714118 102.12375,27.1637805 104.740534,25.0054095 L112,18.8655709 C107.205376,13.5620781 100.131618,9.12855885 91.5890838,6 C87.0308146,10.8517758 82.1180134,15.3855092 76.8844452,19.5347813 C71.549582,23.7675374 65.9445992,27.8162606 59.9513195,31.0953918 C53.6541551,34.5585559 46.8673988,37.1013883 40.0131126,39.2430291 C36.4340272,40.3637893 32.8042944,41.351042 29.1576791,42.2712063 C26.4227176,42.9569797 23.6877561,43.6261902 20.9021472,44.0444467 C18.2347156,44.42941 15.5672841,44.7471177 12.9336174,45.2992163 C11.6336666,45.5670678 10.2661859,45.8682125 9,46.3364925 C12.88297,53.1122483 20.2268481,58.9178163 29.7316833,63 C36.1639076,60.774708 42.781839,59.0851189 49.3322406,57.1444086" id="Fill-1" fill="#FFFFFF"></path>
                <g id="Group-5">
                    <mask id="mask-2" fill="white">
                        <use xlink:href="#path-1"></use>
                    </mask>
                    <g id="Clip-4"></g>
                    <path d="M119.44711,50.6860633 L119.44711,52.4915864 C119.44711,52.7811241 119.430022,53.0704915 119.464029,53.3772311 C119.633218,53.3600292 119.802406,53.428326 119.954676,53.3259659 L119.954676,52.7979854 C119.954676,52.6276691 119.920838,52.4404915 119.988344,52.2701752 C120.259215,52.2018783 120.462241,52.2870365 120.597592,52.5084477 L121.189751,53.3600292 C121.392777,53.3772311 121.578885,53.3772311 121.764823,53.3431679 C121.697317,53.0704915 121.375689,52.5936058 120.986725,52.185017 C121.054401,52.1509538 121.121907,52.1337518 121.189751,52.0998589 C121.629472,51.8954793 121.764823,51.3334355 121.460284,50.9415377 C121.325102,50.7541898 121.121907,50.7032652 120.918881,50.6860633 C120.462241,50.6690316 119.971594,50.7032652 119.44711,50.6860633 L119.44711,50.6860633 Z M122.847798,52.1509538 C122.881636,53.2580097 122.001856,54.51818 120.512998,54.51818 C119.125652,54.51818 118.144359,53.3772311 118.161109,52.1509538 C118.161109,50.8393479 119.226996,49.7833869 120.529747,49.8005888 C121.951099,49.8005888 122.881636,51.0096642 122.847798,52.1509538 L122.847798,52.1509538 Z M39.7593524,46.3091046 C39.8101089,46.0875231 39.8608655,45.9001752 39.8947032,45.7129976 C39.9285409,45.5254793 40.0131351,45.355163 39.996047,45.0996886 L39.1841117,46.462219 C39.4209755,46.462219 39.5730759,46.3601995 39.7593524,46.3091046 L39.7593524,46.3091046 Z M42.5002052,14.7152603 C42.4832864,14.9537032 42.4832864,15.1923163 42.4832864,15.4477908 L42.4832864,16.9806375 C42.4832864,17.21891 42.4492795,17.4743844 42.5171241,17.7298589 C42.6863125,17.7470608 42.855501,17.7639221 43.0246894,17.7128273 C43.0246894,17.6447007 43.0414391,17.5936058 43.0414391,17.5254793 L43.0414391,14.9196399 C43.0414391,14.868545 43.0246894,14.8004185 43.0077706,14.732292 C42.8385821,14.6982287 42.6863125,14.6982287 42.5002052,14.7152603 L42.5002052,14.7152603 Z M69.2488985,17.6957956 C69.2656481,17.6619027 69.2827362,17.6276691 69.2827362,17.5936058 L69.2827362,14.8004185 C69.2827362,14.7665255 69.2656481,14.7493236 69.2488985,14.6982287 C69.07971,14.6641655 68.9272713,14.6641655 68.7751708,14.6982287 C68.7580828,14.732292 68.7413331,14.7665255 68.7413331,14.8004185 L68.7413331,17.5936058 C68.7413331,17.6276691 68.7580828,17.6447007 68.7751708,17.6957956 C68.9272713,17.7298589 69.07971,17.7470608 69.2488985,17.6957956 L69.2488985,17.6957956 Z M91.8863125,27.6082044 L94.102512,25.8880097 C94.0857623,25.8709781 94.0857623,25.8539465 94.0857623,25.8539465 C94.0517554,25.8370852 94.0179177,25.8028516 93.9842492,25.78582 C93.7133785,25.6836302 93.4428462,25.6836302 93.1552259,25.7176934 C92.4615532,25.78582 91.9368999,26.2286423 91.7677114,26.8928759 C91.7002052,27.1313187 91.7171241,27.3699319 91.8863125,27.6082044 L91.8863125,27.6082044 Z M76.811622,17.6957956 C76.811622,17.5936058 76.794534,17.5084477 76.794534,17.3892263 C76.4561571,17.3721946 76.1177802,17.3892263 75.7964913,17.3892263 C75.4581144,17.3892263 75.1197376,17.4064282 74.7813607,17.3721946 C74.7304349,17.2529732 74.747523,17.1337518 74.747523,17.0145304 L74.747523,15.022 C74.747523,14.9196399 74.7642726,14.8174501 74.6967664,14.6982287 C74.6121722,14.6982287 74.527578,14.6813674 74.4258957,14.6813674 C74.3583895,14.6813674 74.2907142,14.6982287 74.2061199,14.6982287 C74.1892011,15.0388613 74.1892011,15.3794939 74.1892011,15.7032652 L74.1892011,16.6909294 C74.1892011,17.0145304 74.1721131,17.355163 74.2061199,17.6619027 C74.4937403,17.7470608 76.5069136,17.7470608 76.811622,17.6957956 L76.811622,17.6957956 Z M63.7841117,14.7152603 C63.6995175,14.6982287 63.6656798,14.6982287 63.6149232,14.6982287 L60.6202878,14.6982287 C60.5695312,14.6982287 60.5187747,14.7152603 60.467849,14.7152603 C60.4510993,14.8344818 60.4172616,14.9368418 60.5018558,15.0388613 L61.6354184,15.0388613 C61.686175,15.0388613 61.7538503,15.0558929 61.8213565,15.0729246 C61.8213565,15.1923163 61.8384446,15.2943358 61.8384446,15.3965255 L61.8384446,17.3892263 C61.8384446,17.4915864 61.8213565,17.5936058 61.8721131,17.6957956 C62.0245519,17.7470608 62.1937403,17.7298589 62.3629287,17.6957956 C62.3629287,17.5767445 62.3796784,17.4915864 62.3796784,17.3892263 L62.3796784,15.3454307 C62.3796784,15.2602725 62.3460099,15.1580827 62.447523,15.0558929 C62.5321172,15.0558929 62.6334611,15.0388613 62.7351433,15.0388613 C63.0564322,15.0388613 63.3780594,15.0388613 63.6824294,15.022 C63.7164363,15.022 63.733186,15.0047981 63.7670237,14.9877664 C63.7841117,14.9196399 63.7841117,14.8344818 63.7841117,14.7152603 L63.7841117,14.7152603 Z M73.7323923,17.6957956 C73.4615216,17.1848467 73.1740704,16.6909294 72.8864501,16.1970122 L72.0405078,14.7152603 L71.4483483,14.7152603 C71.4145106,14.7493236 71.3975917,14.7665255 71.3975917,14.7833869 L69.8918146,17.5936058 C69.8748957,17.6276691 69.8748957,17.6619027 69.8578077,17.7298589 C69.9931585,17.7298589 70.0948407,17.7470608 70.2132726,17.7298589 C70.2807788,17.7298589 70.3315354,17.7128273 70.3993799,17.7128273 L70.8561887,16.8442141 L72.6326674,16.8442141 C72.8186055,17.1337518 72.9372066,17.4573528 73.1402327,17.7298589 C73.3261708,17.7298589 73.5124473,17.7470608 73.7323923,17.6957956 L73.7323923,17.6957956 Z M52.6005862,14.732292 C52.5838366,14.7665255 52.5669177,14.7833869 52.5669177,14.8004185 C52.5669177,15.4135572 52.5330801,16.0438978 52.5669177,16.6568662 C52.6005862,17.2529732 52.8376193,17.5254793 53.41286,17.6957956 L53.4465285,17.6957956 C53.8865876,17.7979854 54.3433964,17.7979854 54.800036,17.7470608 C55.0201502,17.7128273 55.2230072,17.6447007 55.4092836,17.5254793 C55.6292286,17.3721946 55.7984171,17.1848467 55.8322547,16.9123406 C55.8491736,16.7760876 55.8830113,16.6228029 55.8830113,16.4865499 L55.8830113,14.9026083 C55.8830113,14.8516837 55.8660924,14.7833869 55.8491736,14.732292 C55.6799851,14.6982287 55.5107967,14.6982287 55.3416083,14.732292 C55.3416083,14.8344818 55.3246894,14.9026083 55.3246894,14.9877664 L55.3246894,16.4524866 C55.3246894,16.571708 55.3076014,16.6909294 55.2908517,16.8271825 C55.2400952,17.1337518 55.0538187,17.3040681 54.7832864,17.3892263 C54.5295037,17.4573528 54.2588022,17.4915864 53.9881007,17.4573528 C53.8527499,17.4403212 53.734318,17.4064282 53.5989673,17.3721946 C53.3451846,17.2870365 53.1759961,17.1167202 53.1421585,16.8442141 C53.1252396,16.7079611 53.1081516,16.571708 53.1081516,16.435455 L53.1081516,14.9707348 C53.1081516,14.9026083 53.0914019,14.8344818 53.0914019,14.7493236 C52.9052946,14.6982287 52.753025,14.6813674 52.6005862,14.732292 L52.6005862,14.732292 Z M27.9499989,14.7152603 C27.9499989,14.8174501 27.9330801,14.8855766 27.9330801,14.9537032 L27.9330801,15.6349684 C27.9330801,15.9415377 27.9161612,16.2481071 27.9330801,16.571708 C27.9669177,17.1337518 28.1361062,17.5254793 28.8636165,17.7128273 C29.2865876,17.815017 29.7264776,17.7979854 30.1494487,17.7470608 C30.3693937,17.7128273 30.5724198,17.6447007 30.7585271,17.5254793 C30.9953909,17.3721946 31.1645794,17.1678151 31.1982479,16.8954793 C31.2153359,16.759056 31.2491736,16.6228029 31.2491736,16.5035815 L31.2491736,14.9196399 C31.2491736,14.8516837 31.2322547,14.8004185 31.2322547,14.7493236 C30.9444652,14.6982287 30.9107967,14.6982287 30.7077706,14.7665255 L30.7077706,16.3673285 C30.7077706,16.5035815 30.6906825,16.6568662 30.6739329,16.7931192 C30.6231763,17.0996886 30.4368999,17.2870365 30.1494487,17.3721946 C29.9125849,17.4232895 29.6588022,17.4573528 29.4217692,17.4403212 C29.2525807,17.4232895 29.0833923,17.3892263 28.9142039,17.3212701 C28.7113469,17.21891 28.575827,17.0826569 28.5421585,16.8612457 C28.5252396,16.725163 28.5083208,16.5887397 28.5083208,16.4696886 L28.5083208,14.9537032 C28.5083208,14.8855766 28.4912327,14.8174501 28.4744831,14.7493236 C28.3052946,14.7152603 28.1528558,14.7152603 27.9499989,14.7152603 L27.9499989,14.7152603 Z M32.7209439,17.6957956 C32.7887884,17.3040681 32.7041942,16.9123406 32.7718696,16.5206131 C32.8901323,16.4696886 33.0087334,16.4865499 33.1102465,16.4865499 C33.5332176,16.4865499 33.9731076,16.5206131 34.3960787,16.4524866 C34.5820168,16.4184234 34.7682933,16.3845304 34.9203937,16.2993723 C35.1741763,16.1799805 35.3604528,15.9587397 35.3942905,15.652 C35.427959,15.2943358 35.2587706,15.0047981 34.9374817,14.8516837 C34.7175367,14.7493236 34.4974226,14.6982287 34.2436399,14.6982287 C33.6178118,14.6982287 32.9918146,14.6813674 32.3658173,14.6813674 C32.3150608,14.6813674 32.2473854,14.6982287 32.17971,14.7152603 L32.17971,17.5425109 C32.17971,17.5767445 32.1966289,17.6276691 32.1966289,17.6619027 C32.382567,17.7470608 32.5517554,17.7298589 32.7209439,17.6957956 L32.7209439,17.6957956 Z M56.6443593,16.7760876 C56.6443593,17.0485937 56.7627912,17.2361119 56.9319796,17.3892263 C57.1180869,17.5595426 57.3211131,17.6447007 57.5579769,17.7128273 C57.9978669,17.815017 58.4546757,17.815017 58.9114845,17.7639221 C59.1143414,17.7470608 59.3175367,17.678764 59.4867252,17.5767445 C59.6219067,17.5084477 59.7405078,17.4064282 59.8420209,17.2870365 C60.0448779,16.9974988 60.0112094,16.6568662 59.7574267,16.4184234 C59.6559136,16.3332652 59.5373125,16.2651387 59.4190498,16.2142141 C59.1989356,16.1459173 58.9791598,16.0777908 58.7592149,16.0438978 L57.7608338,15.8563796 C57.6500154,15.8361119 57.5456261,15.7894453 57.4564638,15.7201265 C57.2872754,15.6009051 57.2703565,15.4135572 57.4224569,15.2602725 C57.5241392,15.1410511 57.6762396,15.0729246 57.8286784,15.0558929 C58.1332176,15.0047981 58.4375876,14.9877664 58.742296,15.0558929 C58.9960787,15.1071582 59.1989356,15.2262092 59.3006179,15.4816837 C59.3175367,15.515747 59.3344556,15.5498102 59.3681241,15.5838735 C59.5205629,15.6009051 59.6728325,15.5838735 59.8420209,15.5498102 C59.8420209,15.328399 59.7405078,15.1751144 59.5882382,15.0388613 C59.4698063,14.9196399 59.3175367,14.8516837 59.1652671,14.8004185 C58.7084583,14.6471338 58.2347307,14.6301022 57.7608338,14.7152603 C57.6087334,14.7493236 57.439545,14.8004185 57.2872754,14.8516837 C57.1350058,14.9026083 57.0165739,15.0047981 56.9319796,15.1240195 C56.7457032,15.3794939 56.7627912,15.7032652 56.9827362,15.9074745 C57.1011681,16.0096642 57.2365188,16.0948224 57.3718696,16.1459173 C57.541058,16.2142141 57.7271653,16.2481071 57.9132726,16.2821703 C58.2347307,16.3502968 58.5561887,16.4013917 58.8776468,16.4696886 C59.0297472,16.5035815 59.182186,16.5548467 59.3006179,16.6400049 C59.4867252,16.7760876 59.503644,16.9806375 59.3513744,17.1509538 C59.2835298,17.2361119 59.1652671,17.3040681 59.0637541,17.3381314 C58.5731076,17.5084477 58.0992107,17.4915864 57.6087334,17.3040681 C57.4057073,17.21891 57.2365188,17.0996886 57.1686743,16.8612457 C57.1519246,16.8271825 57.1350058,16.7931192 57.1011681,16.759056 C56.9488985,16.759056 56.7966289,16.759056 56.6443593,16.7760876 L56.6443593,16.7760876 Z M37.9828737,17.7809538 C38.1013056,17.7809538 38.2366564,17.7809538 38.3550883,17.7639221 C38.7442217,17.7128273 39.0995175,17.6106375 39.4209755,17.3892263 C39.9623785,16.9974988 40.1652355,16.2821703 39.8947032,15.652 C39.7593524,15.3113674 39.5055697,15.0729246 39.1671928,14.9196399 C38.6257898,14.6471338 38.0503799,14.6130706 37.4582204,14.6982287 C37.1198435,14.7493236 36.8154735,14.8855766 36.5276839,15.0899562 C35.9187747,15.5329489 35.7495862,16.5206131 36.3417458,17.1848467 C36.5109343,17.3721946 36.7139604,17.5084477 36.950655,17.6106375 C37.2722823,17.7298589 37.6274088,17.7809538 37.9828737,17.7809538 L37.9828737,17.7809538 Z M48.2862809,14.7152603 L48.2862809,17.5767445 C48.2862809,17.6106375 48.3033689,17.6619027 48.3033689,17.6957956 C48.3372066,17.7128273 48.3708751,17.7298589 48.404882,17.7298589 L50.3165422,17.7128273 C50.4857307,17.7128273 50.6549191,17.6619027 50.8241076,17.6106375 C51.2980044,17.4573528 51.6025436,17.1167202 51.7209755,16.6400049 C51.754644,16.4696886 51.771732,16.2993723 51.754644,16.111854 C51.7378944,15.4646521 51.3316729,15.022 50.8241076,14.8516837 C50.6212506,14.7833869 50.4011365,14.732292 50.1982795,14.732292 C49.6230388,14.732292 49.0476289,14.7152603 48.4725574,14.7152603 C48.4218008,14.6982287 48.3708751,14.7152603 48.2862809,14.7152603 L48.2862809,14.7152603 Z M22.7559136,15.515747 C22.5696371,15.1071582 22.383699,14.9026083 21.9774776,14.7833869 C21.2839741,14.5790073 20.5903015,14.5962092 19.9304666,14.8344818 C19.7780278,14.9026083 19.6088393,14.9877664 19.4736578,15.0899562 C18.8984171,15.5668418 18.7123098,16.4524866 19.2875505,17.1337518 C19.4567389,17.3381314 19.6766839,17.4743844 19.9135477,17.5595426 C20.6072204,17.815017 21.3007238,17.832219 21.9945656,17.6447007 C22.282186,17.5767445 22.5528875,17.4573528 22.8066702,17.3040681 C22.8405078,16.9293723 22.8405078,16.435455 22.7897513,16.1799805 L21.6561887,16.1799805 C21.4699122,16.1799805 21.2670553,16.1459173 21.080948,16.2142141 L21.080948,16.5035815 C21.1824611,16.5035815 21.2501365,16.5206131 21.3347307,16.5206131 L22.1129975,16.5206131 C22.1637541,16.5206131 22.2312602,16.5376448 22.2991048,16.5548467 L22.2991048,17.0826569 C22.2483483,17.1167202 22.1975917,17.1509538 22.1637541,17.1678151 C21.8253772,17.3212701 21.4870003,17.4064282 21.1147857,17.4064282 C20.7764088,17.4232895 20.4547816,17.355163 20.1504116,17.21891 C19.87971,17.0996886 19.6934336,16.9123406 19.5920897,16.6400049 C19.3890635,16.0607591 19.5920897,15.328399 20.2855931,15.0899562 C20.7256523,14.9368418 21.1824611,14.9026083 21.6561887,15.0388613 C21.9099714,15.1071582 22.1299164,15.2432409 22.2483483,15.4987153 C22.2652671,15.5329489 22.2991048,15.5668418 22.3329425,15.6009051 C22.4513744,15.5838735 22.5696371,15.5668418 22.6882382,15.5329489 C22.6882382,15.5668418 22.7051571,15.5329489 22.7559136,15.515747 L22.7559136,15.515747 Z M44.5304666,15.3626326 C44.6487293,15.4646521 44.699655,15.515747 44.7504116,15.5668418 L46.5438091,17.4915864 C46.5776468,17.5425109 46.6284033,17.5936058 46.6789906,17.6276691 C46.7299164,17.6619027 46.7806729,17.6957956 46.8314294,17.7128273 C46.9891131,17.7325839 47.1489961,17.7266229 47.3051571,17.6957956 C47.3051571,17.6276691 47.3220759,17.5595426 47.3220759,17.5084477 L47.3220759,14.9026083 C47.3220759,14.8516837 47.3051571,14.7833869 47.3051571,14.7152603 C47.1359686,14.6982287 46.983699,14.6813674 46.8314294,14.7152603 C46.8314294,14.8344818 46.8145106,14.9368418 46.8145106,15.0388613 L46.8145106,16.8442141 C46.8145106,16.8954793 46.8481791,16.9806375 46.7299164,16.9974988 L44.598142,14.6982287 C44.3949466,14.6982287 44.2090085,14.6641655 44.0398201,14.7152603 C44.0229012,14.7665255 44.0229012,14.7833869 44.0229012,14.8174501 L44.0229012,17.5425109 C44.0229012,17.5936058 44.0398201,17.6447007 44.0565697,17.678764 C44.2257582,17.6957956 44.378197,17.7128273 44.5304666,17.6619027 C44.5473854,17.2700049 44.5304666,16.9123406 44.5304666,16.5376448 C44.5473854,16.1970122 44.5304666,15.8223163 44.5304666,15.3626326 L44.5304666,15.3626326 Z M64.3762713,14.7152603 L64.3762713,17.5767445 C64.3762713,17.6106375 64.3931901,17.6619027 64.3931901,17.7128273 C64.5549343,17.7470608 64.7219232,17.7470608 64.8838366,17.7128273 C64.8838366,17.6106375 64.9007554,17.5254793 64.9007554,17.4232895 L64.9007554,16.5887397 C64.9007554,16.5376448 64.9175051,16.4696886 64.9345931,16.4013917 L65.6788531,16.4013917 C65.9664735,16.4013917 66.2202561,16.5035815 66.4234514,16.7079611 C66.575721,16.8612457 66.7278215,17.0145304 66.8631722,17.1848467 C66.9986922,17.3212701 67.1169549,17.4743844 67.2524748,17.6276691 C67.2861433,17.678764 67.3370691,17.7128273 67.4045752,17.7298589 C67.5062575,17.7639221 67.8446344,17.7298589 67.9799851,17.6957956 C67.9628971,17.6619027 67.9628971,17.6447007 67.9461475,17.6106375 L67.3032314,16.8954793 C67.1340429,16.7079611 66.9477664,16.5548467 66.7278215,16.435455 L66.6603153,16.3673285 C66.778578,16.3332652 66.8970099,16.3162336 66.9986922,16.2821703 C67.1678806,16.2310754 67.3370691,16.1629489 67.4724198,16.0607591 C67.776959,15.8223163 67.8107967,15.4305888 67.5737637,15.1240195 C67.4553318,14.9537032 67.2861433,14.8516837 67.1002052,14.8004185 C66.9310168,14.7665255 66.7618283,14.732292 66.575721,14.732292 C65.8989673,14.7152603 65.2222135,14.7152603 64.5454597,14.7152603 C64.511622,14.6982287 64.4608655,14.7152603 64.3762713,14.7152603 L64.3762713,14.7152603 Z M25.9704941,16.3502968 C26.1225945,16.3162336 26.2242768,16.2993723 26.3257898,16.2651387 C26.528816,16.1970122 26.7318421,16.111854 26.8839425,15.9415377 C27.0363813,15.7712214 27.0871378,15.5838735 27.0363813,15.3626326 C26.9685367,15.0388613 26.7487609,14.868545 26.4442217,14.7833869 C26.2750333,14.732292 26.1058448,14.7152603 25.9366564,14.6982287 C25.2429838,14.6813674 24.56623,14.6813674 23.8725574,14.6813674 C23.8218008,14.6813674 23.7539563,14.6982287 23.6864501,14.7152603 L23.6864501,17.5767445 C23.6864501,17.6106375 23.7033689,17.6276691 23.7202878,17.678764 C23.8894762,17.7128273 24.0586646,17.7298589 24.2447719,17.6619027 L24.2447719,16.8103212 C24.2447719,16.6738978 24.2109343,16.5206131 24.2786096,16.3673285 C24.5323923,16.3502968 24.786175,16.3673285 25.0399576,16.3673285 C25.300677,16.3647737 25.5510759,16.4693479 25.7336303,16.6568662 L26.1904391,17.1167202 L26.5964913,17.5767445 C26.6301598,17.6276691 26.6810856,17.6619027 26.7487609,17.678764 C26.850274,17.7128273 27.171732,17.678764 27.3069136,17.6447007 C27.0871378,17.3212701 26.4609714,16.6738978 25.9704941,16.3502968 L25.9704941,16.3502968 Z M71.7188806,40.5863066 L68.8766839,42.1363552 C68.776186,42.5274015 68.7081722,42.9259416 68.6734886,43.3285693 C68.6567389,43.4648224 68.6734886,43.6179367 68.6734886,43.7543601 C68.6905766,44.0266959 68.842677,44.1970122 69.1135477,44.2481071 C69.1643043,44.265309 69.2150608,44.2821703 69.2656481,44.2821703 C69.5194308,44.2821703 69.7564638,44.2992019 70.0102465,44.2821703 C70.3824611,44.2481071 70.6699122,44.0609294 70.8391007,43.7030949 C70.9746206,43.3965255 71.0928834,43.0899562 71.2113153,42.7835572 C71.4483483,42.102292 71.583699,41.3867932 71.7528875,40.6886667 C71.7359686,40.6714647 71.7359686,40.6374015 71.7188806,40.5863066 L71.7188806,40.5863066 Z M82.2425711,37.6398345 C83.1731076,36.4135572 84.1374817,35.2213431 85.169362,34.0631922 C84.3405078,33.0412944 83.6128283,31.9853333 83.1391007,30.7420243 C82.9193249,30.9293723 82.7332176,31.0826569 82.6993799,31.372365 C82.6822919,31.4575231 82.6655422,31.5595426 82.6315354,31.6447007 L81.3120347,37.3502968 C81.2951158,37.435455 81.2780278,37.5206131 81.2780278,37.6229732 C81.599655,37.6398345 81.9041942,37.6398345 82.2425711,37.6398345 L82.2425711,37.6398345 Z M73.5293662,32.8028516 C73.4447719,32.8539465 73.3601777,32.8880097 73.2923331,32.9391046 L70.7883442,34.5741411 C70.6362437,34.6763309 70.5516495,34.7955523 70.5178118,34.9658686 L69.4180869,39.7347251 C69.4009989,39.78582 69.4009989,39.8370852 69.4009989,39.9050414 C69.4855931,39.8709781 69.5365188,39.8539465 69.5872754,39.8198832 L72.1251021,38.3381314 C72.2604528,38.2701752 72.3110402,38.1678151 72.345047,38.031562 L73.4953593,33.0242628 C73.5293662,32.9561363 73.5293662,32.8880097 73.5293662,32.8028516 L73.5293662,32.8028516 Z M75.9485917,22.5327786 C75.9318421,22.5159173 75.9147541,22.5159173 75.8980044,22.4987153 C75.8301598,22.5668418 75.7794033,22.6349684 75.7118971,22.7030949 C74.8488669,23.7249927 74.0200127,24.7639221 73.224827,25.8370852 C73.0894762,26.0242628 72.9202878,26.2116107 72.7172616,26.3308321 C72.5309851,26.4500535 72.463479,26.6035085 72.4127224,26.8077178 L71.3805037,31.2529732 C71.3129975,31.5254793 71.2620718,31.815017 71.1945656,32.1045547 C71.2453221,32.0875231 71.2791598,32.0875231 71.2959095,32.0875231 C72.2772025,31.4403212 73.2415766,30.759056 74.1892011,30.0607591 L75.9485917,22.5327786 Z M61.990545,33.6033382 C61.9399576,33.671635 61.8721131,33.7225596 61.8213565,33.7906861 C61.2801227,34.4380584 60.6541254,34.9658686 59.9266151,35.3747981 C59.3175367,35.7154307 58.6577018,35.9709051 57.9978669,36.1752847 C56.7457032,36.5498102 55.4600402,36.7030949 54.174208,36.788253 C54.0219384,36.8052847 53.8865876,36.8224866 53.7512369,36.8734112 L50.7058448,38.1167202 C50.6381695,38.1507835 50.5535752,38.185017 50.468981,38.2190803 L49.4369315,42.7493236 L49.4369315,42.7835572 C49.4369315,42.8004185 49.4538503,42.8004185 49.4538503,42.8176204 C49.5215257,42.8004185 49.6061199,42.7663552 49.6907142,42.7493236 C51.771732,41.948837 53.8527499,41.1313187 55.8997609,40.245674 C57.4903015,39.5644088 59.0637541,38.8662822 60.6202878,38.1167202 C60.7725574,38.048764 60.9079081,37.9636058 61.0600085,37.895309 L62.0245519,33.6886667 C62.0245519,33.6544331 62.007633,33.6374015 61.990545,33.6035085 L61.990545,33.6033382 Z M47.9142355,49.3235328 C48.0324982,49.2896399 48.1170924,49.2555766 48.184937,49.2383747 L54.8846303,46.6325353 C56.4751708,46.002365 58.0317045,45.3383017 59.6219067,44.6738978 C59.723589,44.6398345 59.8420209,44.6059416 59.9096963,44.5035815 C59.9096963,44.4356253 59.9096963,44.3673285 59.9266151,44.2821703 C59.9602836,43.5499805 60.0281282,42.8176204 60.1465601,42.08509 C60.2480732,41.45509 60.3665051,40.841781 60.5187747,40.2288127 C60.5356935,40.1436545 60.5695312,40.0753577 60.5018558,39.9733382 C60.4341805,40.0074015 60.3495862,40.0242628 60.2819109,40.0584964 C58.0824611,41.0461606 55.8491736,41.9660389 53.5989673,42.8687153 L49.2339054,44.5718783 C49.0308792,44.6398345 48.946285,44.7421946 48.8955285,44.9634355 L47.947904,49.0341655 C47.9311543,49.1361849 47.9311543,49.2044818 47.9142355,49.3235328 L47.9142355,49.3235328 Z M40.2838366,49.5451144 C40.3344239,49.5619757 40.351512,49.5790073 40.3684308,49.5790073 L46.5098022,49.5790073 C46.5268902,49.5790073 46.5268902,49.5790073 46.5438091,49.5619757 C46.5607279,49.5619757 46.5607279,49.5451144 46.5776468,49.5279124 C46.5943964,49.4768175 46.6114845,49.408691 46.6284033,49.3407348 L48.4725574,41.3699319 L49.6568765,36.2943358 C49.6737953,36.2263796 49.707633,36.1580827 49.7243827,36.0901265 C49.8429838,36.0901265 49.9444968,36.0729246 50.0460099,36.0729246 L53.0744831,36.0560633 C53.8694996,36.0560633 54.6817733,36.0218297 55.4767898,35.9198102 C56.2337389,35.8355036 56.9813827,35.6815377 57.7102465,35.4599562 C59.3344556,34.9830706 60.5695312,33.9950657 61.4154735,32.5303455 C61.8213565,31.8320487 62.1258957,31.1168905 62.3629287,30.3504672 C62.6672988,29.4137275 62.8704941,28.4597859 63.0396825,27.488983 C63.1748641,26.6035085 63.2594583,25.7176934 63.2256206,24.8320487 C63.208871,24.355163 63.1410264,23.8784477 63.0227637,23.4184234 C62.751893,22.3794939 62.1258957,21.6471338 61.1786096,21.1872798 C60.7216316,20.9658686 60.2480732,20.8127543 59.7574267,20.6933625 C58.7930525,20.4721217 57.8117596,20.3869635 56.8135477,20.3869635 L47.3728325,20.3869635 C47.2544006,20.3869635 47.1528875,20.3697616 47.0173675,20.4208564 L40.2838366,49.5451144 Z M7.66430426,49.5451144 C7.69814195,49.4427543 7.7150608,49.3575961 7.74889849,49.2555766 L8.81478569,44.6910998 L10.743534,36.328399 C10.7604528,36.2432409 10.7942905,36.1752847 10.8110402,36.0901265 C10.9296413,36.0901265 11.0311543,36.0729246 11.1326674,36.0729246 L14.1611406,36.0560633 C15.1424336,36.0560633 16.1404762,35.9877664 17.1050195,35.8346521 C17.8663675,35.7154307 18.5937087,35.5451144 19.3044693,35.272438 C20.3443015,34.8897372 21.2540278,34.2161363 21.9268902,33.3310024 C22.4850429,32.598472 22.908014,31.7981557 23.2296413,30.9465742 C23.8725574,29.1751144 24.2447719,27.3527299 24.3124473,25.462219 C24.3293662,24.7639221 24.2786096,24.048764 24.1094212,23.3674988 C23.8556385,22.4307591 23.3142355,21.7152603 22.4513744,21.2554063 C22.3498613,21.2043114 22.2312602,21.1361849 22.1129975,21.08509 C21.7069453,20.8979124 21.2670553,20.7614891 20.8271653,20.6592993 C19.862622,20.4378881 18.8984171,20.3527299 17.9169549,20.3527299 L8.13803191,20.3527299 C8.10402503,20.4038248 8.08727538,20.4378881 8.08727538,20.488983 L1.38741293,49.4258929 C1.37049409,49.4599562 1.38741293,49.5110511 1.38741293,49.5451144 C1.42108143,49.5619757 1.45508831,49.5619757 1.47200715,49.5619757 L7.54587235,49.5619757 C7.57971004,49.5790073 7.61354773,49.5619757 7.66430426,49.5451144 L7.66430426,49.5451144 Z M111.342984,20.3869635 C111.25839,20.4721217 111.173795,20.5741411 111.089201,20.6592993 C109.075689,22.788253 107.383805,25.1726813 105.945703,27.7274258 C104.778472,29.8223163 103.814098,32.002365 102.984905,34.2335085 C101.969775,36.975601 101.14092,39.751927 100.447079,42.5960389 L98.8736261,49.3235328 C98.8568765,49.3916594 98.8568765,49.4599562 98.8568765,49.5451144 C98.9243827,49.5619757 98.9753084,49.5619757 99.0260649,49.5619757 L105.066092,49.5619757 C105.099761,49.4599562 105.133599,49.3916594 105.150687,49.3065012 L106.165817,44.9634355 C106.182736,44.8614161 106.199486,44.7421946 106.26733,44.6398345 C106.368674,44.6398345 106.470357,44.6228029 106.5717,44.6228029 L110.852168,44.6228029 C110.95385,44.6228029 111.055194,44.5887397 111.156876,44.6738978 C111.139788,44.7421946 111.139788,44.8101509 111.123039,44.8782774 L110.124658,49.2044818 C110.107908,49.3065012 110.057152,49.4258929 110.09082,49.5451144 C110.158665,49.5451144 110.243259,49.5619757 110.310934,49.5619757 L116.164854,49.5619757 C116.23253,49.5619757 116.300036,49.5451144 116.38463,49.5451144 C116.418637,49.4427543 116.435387,49.3575961 116.452475,49.272438 L116.909284,47.3138005 C117.467606,44.8614161 118.076515,42.4257226 118.516574,39.9561363 L118.905707,37.571708 C119.007051,36.8734112 119.091645,36.1752847 119.17624,35.4768175 L119.396185,33.058326 C119.464029,32.1556496 119.480779,31.2529732 119.480779,30.3504672 C119.480779,29.4305888 119.430022,28.5279124 119.328678,27.6254063 C119.244084,26.7225596 119.108733,25.8370852 118.905707,24.9683017 C118.58408,23.4526569 118.110522,21.9877664 117.433768,20.6082044 C117.399761,20.5400779 117.349174,20.4721217 117.315167,20.3869635 L111.342984,20.3869635 Z M81.4472162,38.4062579 C81.4133785,38.4914161 81.3966289,38.5765742 81.37971,38.6617324 L80.9058132,40.6886667 C80.6858682,41.6254063 80.4491736,42.562146 80.3645794,43.515747 C80.2799851,44.3673285 80.2799851,45.2359416 80.4491736,46.0875231 C80.7366248,47.4161606 81.4643043,48.4039951 82.6486234,49.0341655 C83.0545065,49.2555766 83.4945656,49.408691 83.9344556,49.5451144 C84.9326674,49.8344818 85.9477981,49.9368418 86.9798476,49.9709051 C87.905816,50.0047981 88.833307,49.9707348 89.7545381,49.868545 C90.7525807,49.7493236 91.7171241,49.5279124 92.6476605,49.1704185 C94.0517554,48.625236 95.2531626,47.7736545 96.2173675,46.598472 C96.8266151,45.8492506 97.3170924,45.0317324 97.706395,44.1460876 C98.0784404,43.2773041 98.3493111,42.3746277 98.5523373,41.45509 C98.7890319,40.3648954 98.9243827,39.274871 98.8230388,38.1507835 C98.7384446,37.1799805 98.450655,36.2604428 97.92634,35.4427543 C97.5033689,34.778691 96.9787155,34.1994453 96.386556,33.6884964 C96.0652671,33.4161606 95.7436399,33.1434842 95.405263,32.8880097 C94.5087334,32.1556496 93.6287843,31.4232895 92.7828421,30.6228029 C92.2585271,30.111854 91.7338737,29.6009051 91.294153,29.0218297 C91.0403703,28.6982287 90.8204253,28.3575961 90.6341488,27.9829002 C90.3803662,27.4378881 90.4142039,26.9269392 90.7019934,26.4159903 C90.854263,26.1605158 91.0234514,25.9391046 91.2601461,25.751927 C91.4633414,25.5816107 91.7002052,25.4451873 91.9368999,25.3261363 C92.6814982,24.9855036 93.4595959,24.9512701 94.2549508,25.0706618 C94.4918146,25.1045547 94.7117596,25.1726813 94.9317045,25.274871 C95.4898572,25.5303455 95.7776468,25.9731679 95.862241,26.5692749 C95.9128283,26.9269392 95.8789906,27.301635 95.8282341,27.6422676 C95.7607279,28.0339951 95.6590457,28.408691 95.5744514,28.8004185 C95.5238641,29.0047981 95.4898572,29.2091776 95.4392699,29.3965255 L95.4731076,29.4137275 C95.5069453,29.4137275 95.5577018,29.4305888 95.5915395,29.4305888 L101.022489,29.4305888 C101.039238,29.4305888 101.039238,29.4305888 101.056326,29.4137275 C101.073076,29.4137275 101.073076,29.3965255 101.107083,29.3794939 C101.15767,29.192146 101.208427,28.9707348 101.259352,28.7663552 C101.479297,27.7957226 101.73308,26.8077178 101.817674,25.8028516 C101.88518,25.0364282 101.88518,24.2700049 101.73308,23.5206131 C101.631398,23.0437275 101.479297,22.5838735 101.208427,22.1752847 C100.836381,21.5791776 100.311728,21.1702482 99.6857307,20.8636788 C99.0260649,20.5400779 98.3322231,20.3697616 97.6218008,20.2335085 C96.8266151,20.0802238 96.0145106,20.029129 95.2022369,20.0120973 C94.0517554,19.9780341 92.9181928,20.0463309 91.7847994,20.2335085 C90.8204253,20.3869635 89.9066385,20.6592993 89.0101089,21.0682287 C87.808871,21.6130706 86.7599026,22.3624623 85.9139604,23.3843601 C85.0847678,24.3721946 84.5433648,25.4792506 84.1882382,26.7225596 C84.0532259,27.1774745 83.9681241,27.6458443 83.9344556,28.1191533 C83.9004487,28.9027786 84.0190498,29.6692019 84.2895821,30.4013917 C84.5942905,31.2529732 85.0341805,32.0364282 85.5584955,32.7687883 C86.3030938,33.8077178 87.1657857,34.7444574 88.0963221,35.5960389 L89.8391323,37.1799805 C90.4142039,37.7249927 90.9388572,38.2870365 91.3954968,38.9342384 C91.8693937,39.6155036 92.1231763,40.3648954 92.1231763,41.1996156 C92.1231763,41.948837 91.9876564,42.6641655 91.6831172,43.3454307 C91.3787472,44.0266959 90.9050195,44.5376448 90.2111777,44.8273528 C89.551512,45.1168905 88.8576702,45.1679854 88.1641667,44.9976691 C87.5887568,44.8614161 87.1657857,44.5035815 86.9965972,43.9246764 C86.9458407,43.7712214 86.9290911,43.6009051 86.912003,43.4305888 C86.8612465,42.8515134 86.9458407,42.2726083 87.0811915,41.7105645 L87.7579453,38.7811241 L87.808871,38.4745547 C87.7579453,38.4573528 87.7071887,38.4404915 87.673351,38.4404915 L81.4472162,38.4062579 Z M77.6912327,20.4038248 C77.6629783,20.4872798 77.640307,20.5727786 77.6237265,20.6592993 L76.2531309,26.5863066 L72.6155794,42.2554063 C72.4802286,42.8004185 72.3110402,43.3285693 72.0405078,43.8223163 C71.8034748,44.265309 71.4650979,44.5718783 71.0082891,44.759056 C70.8729384,44.8101509 70.7377568,44.8614161 70.6024061,44.895309 C70.0440842,45.0485937 69.4688435,45.0656253 68.8934336,45.0145304 C68.6229012,44.9804672 68.3521997,44.9293723 68.0984171,44.8101509 C67.6754459,44.6059416 67.4385821,44.2992019 67.4385821,43.8223163 C67.4216633,43.4305888 67.4553318,43.0390316 67.539926,42.6473041 L68.0138228,40.5522433 L69.4519246,34.3356983 L70.9746206,27.8125839 L72.6155794,20.7444574 C72.6326674,20.642438 72.6665051,20.5230462 72.6834239,20.4208564 C72.6326674,20.4038248 72.5988297,20.3869635 72.5819109,20.3869635 L66.5080457,20.3869635 C66.4740388,20.3869635 66.4572891,20.4038248 66.4065326,20.4208564 C66.3872451,20.4768905 66.3703263,20.5337762 66.3556069,20.5911727 L61.7538503,40.381927 C61.4493111,41.6765012 61.229197,43.0047981 61.2124473,44.3332652 C61.1955285,45.0317324 61.246285,45.7468905 61.4154735,46.4281557 C61.7030938,47.6544331 62.3967664,48.5400779 63.530329,49.1021217 C63.8856248,49.272438 64.2407513,49.408691 64.6300539,49.5279124 C65.6451846,49.8174501 66.6939838,49.9368418 67.7429521,49.9537032 C68.6734886,49.9877664 69.5872754,49.9537032 70.5178118,49.8344818 C71.4145106,49.732292 72.2772025,49.5451144 73.1231447,49.2555766 C74.7982795,48.6763309 76.1177802,47.6544331 77.0990732,46.1726813 C77.4193469,45.6809781 77.707644,45.1690073 77.9621034,44.6398345 C78.554263,43.3965255 78.9939838,42.08509 79.315611,40.7566229 L80.1615532,37.1631192 L83.9850429,20.6763309 C84.0021309,20.5911727 84.0357994,20.5060146 83.9850429,20.4208564 C83.6299164,20.3697616 77.9621034,20.3697616 77.6912327,20.4038248 L77.6912327,20.4038248 Z M29.1850746,49.9537032 C30.098523,49.9537032 30.9615532,49.9196399 31.9428462,49.7665255 C32.7887884,49.6471338 33.6178118,49.4427543 34.4128283,49.1361849 C35.8509301,48.5743114 37.0352492,47.671635 37.9321172,46.4111241 C38.3212506,45.8661119 38.6425395,45.3040681 38.930329,44.7079611 C39.4884817,43.5499805 39.9114528,42.3405645 40.2330801,41.0972555 L41.1636165,37.1459173 L42.7370691,30.3843601 C42.9908517,29.3113674 43.2277155,28.2554063 43.3461475,27.1483504 C43.4307417,26.381927 43.4814982,25.598472 43.4307417,24.8320487 C43.396904,24.3381314 43.3292286,23.8612457 43.1938779,23.4013917 C42.8893387,22.3113674 42.2464226,21.4940195 41.2482107,20.948837 C40.8419893,20.7275961 40.4190182,20.5741411 39.996047,20.4378881 C39.0487609,20.165382 38.067468,20.0463309 37.0692561,20.0120973 C35.9187747,19.9611727 34.7682933,20.0120973 33.6178118,20.1824136 C32.8901323,20.2846034 32.1627912,20.4549197 31.4691186,20.6933625 C29.7772341,21.272438 28.4237265,22.2943358 27.4424336,23.8101509 C27.1040567,24.3210998 26.7993483,24.8661119 26.528816,25.4281557 C25.8858999,26.7738248 25.4629287,28.2043114 25.1245519,29.652 L23.7372066,35.6643358 L22.5190498,40.9780341 C22.2652671,42.08509 22.1299164,43.192146 22.1129975,44.3332652 C22.0960787,45.0828273 22.1637541,45.815017 22.3667802,46.5473771 C22.6542314,47.6203698 23.2803978,48.4380584 24.2447719,48.9658686 C24.4477981,49.0852603 24.6677431,49.1872798 24.887688,49.272438 C25.5813607,49.5619757 26.3257898,49.7154307 27.070219,49.8174501 C27.7638916,49.9196399 28.5252396,49.9709051 29.1850746,49.9537032 L29.1850746,49.9537032 Z M78.5204253,19.6205401 C78.6388572,19.6205401 78.7063634,19.6374015 78.7572891,19.6374015 L83.7312602,19.6374015 C83.883699,19.6374015 84.0021309,19.5863066 84.1203937,19.4841168 C84.9495862,18.7689586 85.7955285,18.0704915 86.6414707,17.3892263 C90.837175,14.1191533 95.405263,11.5473771 100.362484,9.63983455 C100.41341,9.62280292 100.464167,9.60577129 100.498004,9.58873966 C100.582599,9.5546764 100.667193,9.5546764 100.768706,9.60577129 L102.138963,10.4403212 C102.156051,10.4573528 102.172801,10.4914161 102.206808,10.5254793 C102.105295,10.5595426 102.037619,10.6106375 101.953025,10.6276691 C99.431948,11.615674 96.9787155,12.7736545 94.6271653,14.1021217 C91.3279906,15.975601 88.2487609,18.1556496 85.3725574,20.625236 C85.2372066,20.7444574 85.1526124,20.8636788 85.1187747,21.0339951 C84.9834239,21.6982287 84.8142355,22.345601 84.6617967,22.9926326 C84.645047,23.0607591 84.645047,23.1288856 84.627959,23.2310754 C84.6788847,23.1799805 84.7125532,23.1629489 84.7296413,23.1459173 C85.8968724,21.732292 87.3688118,20.7614891 89.0777843,20.1314891 C90.075827,19.7566229 91.1249645,19.5011484 92.1906825,19.3650657 C92.6136536,19.3138005 93.0366248,19.2799075 93.4428462,19.245674 C93.578197,19.2286423 93.6966289,19.1775474 93.8150608,19.1095912 L95.9128283,17.8490803 C99.1614157,15.975601 102.579022,14.4768175 106.13198,13.318837 C106.182736,13.301635 106.233324,13.2846034 106.26733,13.2846034 C106.5717,13.4719513 107.333048,14.0852603 107.502237,14.2894696 C107.434731,14.3575961 107.350136,14.3746277 107.265542,14.408691 C106.22368,14.7982044 105.191292,15.2127543 104.169224,15.652 C101.851512,16.6568662 99.6011365,17.7979854 97.4355243,19.0753577 C97.3341805,19.1434842 97.2157486,19.1775474 97.1311543,19.2799075 L97.1311543,19.3138005 C97.1311543,19.3138005 97.147904,19.3308321 97.164992,19.3308321 C97.3170924,19.3478637 97.4695312,19.3650657 97.6218008,19.3989586 C98.450655,19.5011484 99.2627596,19.6884964 100.041196,19.9780341 C100.667193,20.2166472 101.259352,20.5400779 101.766918,20.9999319 C101.800586,21.0339951 101.834424,21.0510268 101.868431,21.08509 C104.727716,19.6205401 107.671425,18.3940925 110.716817,17.4064282 C110.750824,17.3892263 110.801412,17.3892263 110.852168,17.3892263 C111.207633,17.7470608 111.54601,18.1215864 111.884387,18.4962822 L112.86568,19.6374015 L118.313548,19.6374015 C118.364304,19.7225596 118.414892,19.8077178 118.448898,19.8760146 C119.260834,21.4768175 119.836244,23.1629489 120.208458,24.9342384 C120.394566,25.8539465 120.529747,26.7738248 120.614341,27.6933625 C120.732943,29.0558929 120.800618,30.4184234 120.716024,31.7809538 L120.614341,33.51818 C120.580504,34.0802238 120.512998,34.625236 120.462241,35.1872798 C120.411315,35.7154307 120.343809,36.2604428 120.259215,36.788253 C120.157533,37.5206131 120.056189,38.2701752 119.920838,39.002365 L119.277922,42.3577664 L118.43198,46.0875231 L117.535112,49.9877664 C117.501443,50.0899562 117.484355,50.2091776 117.450517,50.328399 C117.145978,50.3626326 116.841608,50.3454307 116.553819,50.3454307 L112.933355,50.3454307 L112.27352,51.1459173 C110.767574,52.9342384 109.075689,54.5522433 107.265542,56.0171338 C104.66004,58.1460876 101.851512,59.9512701 98.8907142,61.5352117 C95.6590457,63.2555766 92.2923648,64.652 88.8240017,65.8103212 C86.1169865,66.7129976 83.3590457,67.462219 80.5674363,68.058326 C79.1971791,68.3478637 77.8267527,68.6205401 76.4561571,68.8419513 C75.3904391,69.0122676 74.3245519,69.165382 73.2586646,69.3018054 C72.2096963,69.4380584 71.1607279,69.5572798 70.0948407,69.642438 C69.1135477,69.7275961 68.1320856,69.778691 67.1340429,69.8466472 C65.9497238,69.9318054 64.7483166,69.9658686 63.5639975,69.9830706 L60.8233139,69.9999319 C59.6215684,69.9830706 58.4201612,69.9490073 57.2196,69.8979124 C56.2721447,69.8638491 55.3246894,69.7955523 54.394153,69.7103942 C53.3451846,69.625236 52.3131351,69.5232165 51.2641667,69.4038248 C50.1306041,69.2677421 48.9970415,69.0974258 47.8803978,68.9271095 C46.5098022,68.7225596 45.139545,68.4670852 43.7860374,68.1775474 C41.0621034,67.6155036 38.3720072,66.9001752 35.7157486,66.0485937 C32.6363497,65.0607591 29.6249645,63.868545 26.6980044,62.4378881 C26.3427087,62.2675718 25.9874129,62.0802238 25.6150292,61.8930462 C25.5644418,61.858983 25.5136853,61.8247494 25.4290911,61.7738248 C25.547523,61.7395912 25.6150292,61.705528 25.6828737,61.6886667 L32.399655,59.9344088 C36.6293662,58.7932895 40.8252396,57.5838735 44.9871062,56.2213431 C46.6284033,55.6765012 48.2526124,55.1142871 49.8599026,54.4842871 L56.7966289,51.8103212 L61.9399576,49.7154307 C62.0583895,49.6641655 62.1597334,49.6130706 62.2950842,49.5619757 C62.21049,49.4938491 62.1429838,49.4427543 62.0751392,49.408691 C61.7707692,49.2044818 61.46623,48.9829002 61.2124473,48.7103942 C60.6710443,48.1485207 60.3495862,47.4841168 60.163479,46.7348954 L60.0619659,46.3259659 C59.9433648,46.2919027 59.8587706,46.3601995 59.7574267,46.3942628 L55.3585271,48.165382 L48.7938462,50.7032652 C45.3764088,52.0485937 41.874208,53.1217567 38.3550883,54.1605158 C34.683699,55.2507105 30.9953909,56.2554063 27.3069136,57.192146 L20.7931585,58.8101509 C20.4547816,58.895309 20.4547816,58.895309 20.1673304,58.7081314 L19.1521997,58.0096642 C19.101274,57.9757713 19.0506867,57.9245061 18.9660924,57.8565499 C19.7274404,57.652 20.4547816,57.4987153 21.1824611,57.3113674 L23.364992,56.7663552 L25.547523,56.1874501 L27.7131351,55.6082044 L29.8787472,55.0120973 L32.078197,54.381927 L34.2436399,53.7517567 C34.9713194,53.5475474 35.6817417,53.3259659 36.3925023,53.1045547 L38.5411956,52.4404915 L42.8385821,51.0779611 L44.9703565,50.3794939 C44.9703565,50.2943358 44.9196,50.328399 44.8857623,50.3115377 L38.930329,50.3115377 C38.930329,50.2263796 38.930329,50.1580827 38.9472479,50.0899562 C39.0825986,49.4599562 39.234699,48.8466472 39.3871378,48.2164769 C39.4038875,48.1825839 39.4038875,48.1313187 39.4038875,48.0974258 C39.3363813,48.0461606 39.2856248,48.0802238 39.2179494,48.0974258 L37.0352492,48.778691 C36.9295065,48.8136058 36.8274858,48.8592506 36.7308792,48.914944 C35.6142355,49.6130706 34.3791598,50.0560633 33.0933276,50.328399 C32.3658173,50.481854 31.638307,50.5838735 30.8938779,50.6349684 C30.7585271,50.6521703 30.6060883,50.6860633 30.4709067,50.7201265 L22.7388256,52.832219 C20.2688435,53.4792506 17.7986922,54.0584964 15.294534,54.5863066 C15.1762713,54.6033382 15.0747582,54.6205401 14.9732451,54.6374015 C14.6856248,54.4159903 14.0596275,53.8198832 13.9073579,53.6155036 C14.2457348,53.4962822 14.5841117,53.4451873 14.9224886,53.3600292 C15.2439466,53.274871 15.5823235,53.1897129 15.9037816,53.1217567 L16.9189122,52.8662822 L17.9002052,52.6108078 L18.9153359,52.3553333 L19.8966289,52.0998589 C20.2350058,52.0147007 20.5733827,51.9123406 20.9117596,51.8271825 L21.8928834,51.571708 C22.2312602,51.4865499 22.5696371,51.4013917 22.908014,51.2993723 C23.2296413,51.2142141 23.5680182,51.129056 23.8894762,51.0266959 C24.2278531,50.9415377 24.56623,50.8393479 24.9046069,50.7541898 L25.8858999,50.4816837 C25.8182245,50.3794939 25.7167114,50.3965255 25.6321172,50.3794939 C24.9722823,50.2432409 24.3461158,50.0388613 23.7372066,49.7665255 C23.3142355,49.5619757 22.908014,49.3235328 22.5359686,49.0169635 C22.146666,48.6933625 21.8253772,48.318837 21.5715945,47.8930462 C21.520838,47.8078881 21.4870003,47.7395912 21.4193249,47.6375718 C21.3347307,47.6544331 21.2332176,47.6544331 21.1486234,47.6884964 L15.9037816,49.0510268 L10.8956344,50.2602725 L10.8110402,50.2602725 L10.6758586,50.1240195 L9.49153948,48.5060146 C9.4238641,48.4208564 9.40694525,48.318837 9.28834415,48.2675718 C9.10240605,48.948837 8.98397414,49.6471338 8.79786685,50.2943358 C8.76402916,50.3113674 8.76402916,50.3113674 8.74711032,50.328399 C8.73019147,50.328399 8.73019147,50.3454307 8.71327263,50.3454307 L0.0846618982,50.3454307 C0.0675738652,50.3454307 0.0508242091,50.328399 0.0339053645,50.328399 C0.0169865199,50.328399 0.0169865199,50.3113674 6.76753783e-05,50.3113674 L6.76753783e-05,50.2262092 L6.98755048,19.8247494 C7.00430014,19.7736545 7.02138817,19.705528 7.03830702,19.6374015 C7.35976506,19.6203698 7.68105392,19.6374015 7.98576231,19.6203698 L10.8788847,19.6203698 C10.9465601,19.5352117 11.0311543,19.4500535 11.0819109,19.381927 C12.6215257,17.5084477 14.330329,15.8223163 16.2083208,14.272438 C18.9999301,11.9561363 22.0453221,10.0145304 25.2599026,8.32839903 C28.3560512,6.71039416 31.5706316,5.38192701 34.8867252,4.27487105 C37.6952534,3.33813139 40.5376193,2.57170803 43.4138228,1.95856934 C44.8011681,1.66903163 46.1885133,1.39652555 47.5927774,1.17511436 C48.5400635,1.02182968 49.487688,0.902608273 50.4351433,0.783386861 C51.4671928,0.64713382 52.515992,0.544944039 53.5651296,0.442754258 C54.1911268,0.374627737 54.8340429,0.340564477 55.4767898,0.289469586 L58.2516495,0.136184915 C58.8438091,0.102121655 59.4190498,0.102121655 60.0112094,0.0850900243 L63.1242768,0.0680583942 C63.9869686,0.0680583942 64.8499989,0.119153285 65.7126908,0.153216545 C66.3048503,0.170248175 66.8802602,0.204311436 67.4724198,0.238374696 L69.6547816,0.408690998 C70.1794349,0.442754258 70.7037499,0.493849148 71.2284033,0.544944039 L73.0894762,0.749323601 L74.7136853,0.970734793 C75.4410264,1.07292457 76.1517871,1.17511436 76.8791282,1.3113674 L79.6878256,1.83934793 C81.5488985,2.19701217 83.3761337,2.65686618 85.2033689,3.16781509 C88.570219,4.10455474 91.8693937,5.2627056 95.0668861,6.69336253 C95.3377568,6.81258394 95.6084583,6.93180535 95.8789906,7.06805839 C95.9299164,7.08509002 95.9635849,7.11915328 96.0314294,7.15321655 C95.9468352,7.25540633 95.8282341,7.27243796 95.7436399,7.32353285 C94.2549508,8.02182968 92.7828421,8.77122141 91.3618283,9.58873966 C87.4028187,11.8539465 83.7820168,14.5619757 80.4660924,17.6957956 C79.8906825,18.2408078 79.3323607,18.8028516 78.7572891,19.3650657 C78.6896138,19.4159903 78.6388572,19.5011484 78.5204253,19.6205401 L78.5204253,19.6205401 Z" id="Fill-3" fill="#172E52" mask="url(#mask-2)"></path>
                </g>
                <path d="M77.7045762,20.4176528 C77.9758142,20.3824033 83.6341996,20.3647785 83.9730352,20.4176528 C84.02403,20.5057766 83.9901464,20.5939004 83.9730352,20.6820242 L83.3463588,23.466736 L81.7197784,30.7457613 L80.1441927,37.7427904 L79.2971037,41.4616145 C78.9752098,42.8539704 78.5347235,44.193452 77.9417612,45.4800594 C77.6869568,46.0278369 77.3984383,46.5574609 77.0778998,47.0662877 C76.095107,48.5996417 74.7568757,49.6571272 73.0965812,50.256369 C72.2494921,50.5559899 71.3685195,50.7500384 70.4873775,50.8556108 C69.5725213,50.9613593 68.6407234,50.9966088 67.7089254,50.9789841 C66.6587044,50.9437345 65.608314,50.8381622 64.5918071,50.5383651 C64.2189185,50.4326165 63.8461993,50.2916185 63.4905913,50.0977461 C62.3722644,49.5163054 61.6776513,48.5996417 61.3728687,47.3306591 C61.2034509,46.6082202 61.1693979,45.8854289 61.1693979,45.1628138 C61.1863397,43.7704578 61.4065828,42.4133514 61.7117043,41.0738698 L66.3198688,20.5939004 C66.3366411,20.5410261 66.3535829,20.4705271 66.3706941,20.4176528 C66.42135,20.4000281 66.4382918,20.3824033 66.4721754,20.3824033 L72.5544442,20.3824033 C72.5883278,20.3824033 72.6051001,20.4000281 72.6559255,20.4176528 C72.6391531,20.5410261 72.6051001,20.6467747 72.5883278,20.7525232 L70.944975,28.066798 L69.4202147,34.8170805 L67.9801633,41.2501174 L67.5057934,43.4179627 C67.4210845,43.8233321 67.387201,44.2288778 67.4039733,44.634071 C67.4210845,45.1275642 67.6581001,45.4626109 68.0648722,45.656307 C68.3189989,45.7796803 68.589898,45.8501793 68.8611359,45.8678041 C69.4369871,45.9206784 70.013177,45.9206784 70.5720864,45.7444308 C70.7076206,45.7091813 70.8431549,45.656307 70.9788586,45.6034327 C71.4361172,45.4095604 71.7749529,45.0923147 72.0121378,44.634071 C72.2662645,44.122953 72.4526241,43.5765855 72.5883278,43.0125932 L73.265999,40.0163843 L77.6029256,20.6643994 C77.6537509,20.6115252 77.6876345,20.5234014 77.7045762,20.4176528 M30.4031234,45.9206784 C30.826668,45.9383031 31.284096,45.8678041 31.7076406,45.7269823 C32.3006029,45.5153089 32.7412586,45.145189 32.9953853,44.563572 C33.0460413,44.4578234 33.0968666,44.3520749 33.1307502,44.2463263 C33.3171098,43.7882588 33.4357022,43.3122141 33.5542947,42.8363456 L34.926579,36.7383554 L36.3666304,30.2698928 L36.9257091,27.6966781 C37.0273598,27.2384344 37.0614128,26.7801906 37.0273598,26.3219469 C36.9934763,25.9165775 36.8072861,25.6169566 36.4684505,25.4230842 C36.2990327,25.3349604 36.1125037,25.2468366 35.9261441,25.2115871 C35.2484728,25.0529643 34.5708016,25.0882138 33.9100721,25.2468366 C33.1138084,25.440709 32.5718408,25.9165775 32.2836611,26.7096916 C32.2667193,26.7449411 32.2497776,26.7801906 32.2330052,26.8330649 C32.1142433,27.2208096 31.9788785,27.6085543 31.8941696,27.996299 L28.6411782,42.466402 C28.5225857,43.030218 28.3870515,43.5942102 28.3363955,44.1758273 C28.3192843,44.4225739 28.3192843,44.6694968 28.3531679,44.9160671 C28.3870515,45.1628138 28.5058134,45.3566861 28.6920035,45.5153089 C28.8614213,45.656307 29.0647227,45.7444308 29.2681935,45.8151061 C29.6400656,45.9034061 30.0219333,45.9390081 30.4031234,45.9206784 M29.1324898,50.9966088 C28.4717604,51.0144098 27.726322,50.9613593 26.9639419,50.8556108 C26.2186729,50.7500384 25.4900069,50.5912394 24.7786215,50.2916185 C24.5582089,50.2034947 24.355077,50.0801214 24.1346644,49.9743728 C23.1691523,49.4103806 22.542137,48.5820169 22.2541267,47.4716571 C22.0508253,46.7137925 22,45.9559279 22,45.1804385 C22.0169418,44.0172045 22.1694178,42.8539704 22.4067722,41.7083611 L23.626411,36.2096127 L25.015637,29.9878967 C25.3544727,28.4897922 25.7951284,27.0093125 26.4218049,25.6169566 C26.6928734,25.0353395 26.9978254,24.4713473 27.336661,23.9426045 C28.3192843,22.3916258 29.6746268,21.3165155 31.3688049,20.7172737 C32.0803598,20.4705271 32.7919146,20.3119043 33.5204111,20.188531 C34.6724523,20.0122834 35.8244934,19.9770339 36.9767039,20.0122834 C37.9591578,20.0475329 38.9417811,20.1709062 39.9074626,20.4529023 C40.3479489,20.5762756 40.7714935,20.7525232 41.1611544,20.9816451 C42.1607195,21.5280126 42.8045072,22.374001 43.1094592,23.5196103 C43.2451629,24.0131036 43.3127606,24.5065968 43.3466442,25.00009 C43.3974695,25.8108289 43.363586,26.6039431 43.2619353,27.3970572 C43.126401,28.5250417 42.8892161,29.6354015 42.6522006,30.7457613 L41.0764455,37.7427904 L40.1446476,41.8317344 C39.8396955,43.1183418 39.416151,44.3696996 38.8402998,45.5681832 C38.5521201,46.1850497 38.2132845,46.7666668 37.8405653,47.3306591 C36.9426509,48.6525159 35.7567262,49.5690034 34.3166749,50.1506204 C33.5204111,50.4678661 32.6902639,50.6793632 31.8431748,50.8027365 C30.8944351,50.9613593 30.0305737,50.9966088 29.1324898,50.9966088" id="Fill-6" fill="#FFFFFF"></path>
                <path d="M42.4231872,14.091508 C42.6107767,14.0577623 42.7642591,14.0746351 42.9347951,14.091508 C42.9518487,14.1589996 42.9689023,14.2264912 42.9689023,14.2771098 L42.9689023,16.8586622 C42.9689023,16.9261537 42.9518487,16.9767724 42.9518487,17.044264 C42.7813127,17.0948826 42.6278303,17.0780097 42.4402408,17.0611368 C42.38908,16.8080435 42.4231872,16.571823 42.4061336,16.3187296 L42.4061336,14.8001695 C42.4061336,14.5808219 42.38908,14.3277285 42.4231872,14.091508 L42.4231872,14.091508 Z M69.384924,17.044264 C69.2143881,17.0948826 69.0609057,17.0611368 68.9074233,17.0611368 C68.8903697,17.0105182 68.8733161,16.9936453 68.8733161,16.9598995 L68.8733161,14.1927454 C68.8733161,14.1589996 68.8903697,14.1421267 68.9074233,14.091508 C69.0779593,14.0577623 69.2314417,14.0577623 69.384924,14.091508 C69.4019776,14.1252538 69.4190312,14.1589996 69.4190312,14.1927454 L69.4190312,16.9598995 C69.4019776,16.9936453 69.384924,17.0105182 69.384924,17.044264 L69.384924,17.044264 Z M77.0078819,17.044264 C76.7009172,17.0948826 74.6715391,17.0948826 74.381628,17.044264 C74.3304672,16.723679 74.3645744,16.4030941 74.3645744,16.0825092 L74.3645744,15.1038815 C74.3645744,14.7832966 74.3475208,14.4458387 74.381628,14.1083809 C74.466896,14.1083809 74.5351103,14.091508 74.6033247,14.091508 C74.6885927,14.091508 74.7909143,14.091508 74.8761823,14.1083809 C74.9443967,14.2264912 74.9273431,14.3277285 74.9273431,14.4289659 L74.9273431,16.4030941 C74.9273431,16.5212043 74.9102895,16.6224417 74.9614503,16.7574248 C75.3025222,16.7911706 75.6435942,16.7742977 75.9846661,16.7742977 L76.9908283,16.7742977 C77.0078819,16.8417893 77.0078819,16.9261537 77.0078819,17.044264 L77.0078819,17.044264 Z M63.8766122,14.091508 L63.8766122,14.3614743 C63.842505,14.3783472 63.8254514,14.3952201 63.7913442,14.3952201 L62.8363428,14.412093 C62.7340212,14.412093 62.6316996,14.412093 62.5464316,14.4289659 C62.4611637,14.5302032 62.4782173,14.6145677 62.4782173,14.715805 L62.4782173,16.7405519 C62.4782173,16.8417893 62.4611637,16.9430266 62.4611637,17.044264 C62.2735741,17.0780097 62.1200917,17.0780097 61.9666093,17.044264 C61.898395,16.9430266 61.9325021,16.8417893 61.9325021,16.7405519 L61.9325021,14.7664237 C61.9325021,14.6651863 61.9325021,14.563949 61.9154486,14.4458387 C61.8472342,14.4289659 61.7790198,14.412093 61.727859,14.412093 L60.585268,14.412093 C60.5,14.3108556 60.5341072,14.2096183 60.5511608,14.091508 C60.6023216,14.0746351 60.6534824,14.0746351 60.7046432,14.0746351 L63.7231298,14.0746351 C63.7401834,14.0746351 63.7913442,14.091508 63.8766122,14.091508 L63.8766122,14.091508 Z M71.1755517,15.8462887 C71.6359989,15.8800345 72.3522499,15.8800345 72.5910003,15.8294158 C72.5398395,15.6606869 72.4375179,15.5088309 72.3693035,15.3569749 L72.1134996,14.867661 C72.0282316,14.715805 71.9941244,14.5470761 71.8576956,14.412093 C71.6871596,14.9351526 71.3972485,15.3569749 71.1755517,15.8462887 L71.1755517,15.8462887 Z M73.9041273,17.044264 C73.6824305,17.0948826 73.4948409,17.0780097 73.3072514,17.0611368 C73.1196618,16.7911706 72.983233,16.4705857 72.7956435,16.1837465 L71.0050158,16.1837465 L70.5445686,17.044264 C70.4763543,17.044264 70.4081399,17.0611368 70.3569791,17.0611368 L69.9988535,17.0611368 C70.0159071,17.0105182 70.0159071,16.9598995 70.0329607,16.9261537 L71.5507309,14.1421267 C71.5677845,14.1252538 71.5848381,14.1083809 71.6018917,14.0746351 L72.1987676,14.0746351 C72.4886787,14.5470761 72.7785899,15.0532628 73.0514474,15.5425767 L73.9041273,17.044264 Z M52.6041846,14.1083809 C52.757667,14.0746351 52.9111493,14.091508 53.0987389,14.091508 C53.1157925,14.1758725 53.1157925,14.2433641 53.1157925,14.3108556 L53.1157925,15.7619242 C53.1157925,15.8969074 53.1328461,16.0318905 53.1498997,16.1668736 C53.1840069,16.4368399 53.3545428,16.6055688 53.6103468,16.6899332 C53.729722,16.723679 53.8661508,16.7574248 54.0025795,16.7742977 C54.2754371,16.8080435 54.5482946,16.7742977 54.8040986,16.7068061 C55.0940097,16.6393146 55.2815993,16.4537128 55.3157065,16.1500007 C55.3327601,16.0318905 55.3498137,15.9137803 55.3498137,15.7787971 L55.3498137,14.3277285 C55.3498137,14.2433641 55.3498137,14.1758725 55.3668673,14.0746351 C55.5374033,14.0408894 55.7079392,14.0408894 55.8784752,14.0746351 C55.8955288,14.1252538 55.9125824,14.1927454 55.9125824,14.2433641 L55.9125824,15.8125429 C55.9125824,15.947526 55.8784752,16.0993821 55.8614216,16.2343652 C55.8102608,16.5043314 55.6567784,16.7068061 55.4350817,16.8417893 C55.2474921,16.9598995 55.042849,17.0273911 54.8211522,17.0611368 C54.3607051,17.1286284 53.9173116,17.1286284 53.4568644,17.0105182 L53.4227572,17.0105182 C52.8429349,16.8417893 52.6041846,16.571823 52.5700774,15.9812718 C52.5359702,15.3738478 52.5700774,14.7495508 52.5700774,14.1421267 L52.6041846,14.1083809 Z M27.7570937,14.091508 L28.2687016,14.091508 C28.2857552,14.1589996 28.3028088,14.2264912 28.3028088,14.2939827 L28.3028088,15.79567 C28.3028088,15.9306532 28.3198624,16.0656363 28.336916,16.1837465 C28.3710232,16.4030941 28.507452,16.5549501 28.7120952,16.6393146 C28.8655775,16.723679 29.0531671,16.7405519 29.2237031,16.7574248 C29.479507,16.7911706 29.7182574,16.7574248 29.9570077,16.6899332 C30.2469189,16.6224417 30.4515621,16.4368399 30.4856692,16.116255 L30.5197764,15.6944327 L30.5197764,14.1083809 C30.7244196,14.0408894 30.7585268,14.0408894 31.0484379,14.091508 C31.0484379,14.1421267 31.0654915,14.2096183 31.0654915,14.2602369 L31.0654915,15.8294158 C31.0654915,15.9643989 31.0313844,16.0993821 31.0143308,16.2174923 C30.9737432,16.4829029 30.8095171,16.7140615 30.5709372,16.8417893 C30.3833477,16.9598995 30.1787045,17.0273911 29.9570077,17.0611368 C29.5306678,17.1117555 29.0872743,17.1286284 28.6609344,17.0273911 C27.9276297,16.8586622 27.7570937,16.4705857 27.7229865,15.8969074 C27.7059329,15.5931953 27.7229865,15.2894833 27.7229865,14.9688984 L27.7229865,14.2939827 C27.7570937,14.2602369 27.7570937,14.1927454 27.7570937,14.091508 L27.7570937,14.091508 Z M32.6344225,14.4458387 C32.5832617,14.6989321 32.5832617,15.2894833 32.6344225,15.491958 C32.8561192,15.5257038 33.9134422,15.5257038 34.0839782,15.491958 C34.2033534,15.4750851 34.305675,15.4413393 34.4079966,15.4075935 C34.5955861,15.3232291 34.6979077,15.1882459 34.7149613,14.9857713 C34.7320149,14.7832966 34.6296933,14.6314405 34.4591574,14.5302032 C34.3227286,14.4627116 34.1862998,14.4289659 34.049871,14.4289659 L32.6855833,14.4289659 C32.6685297,14.412093 32.6514761,14.4289659 32.6344225,14.4458387 L32.6344225,14.4458387 Z M32.5662081,17.044264 C32.3956721,17.0780097 32.2251361,17.0780097 32.0546002,17.044264 C32.0375466,16.9936453 32.0375466,16.9598995 32.0375466,16.9261537 L32.0375466,14.1252538 C32.105761,14.1083809 32.1739754,14.091508 32.2251361,14.091508 L34.1180854,14.1083809 C34.3595643,14.1083809 34.5981442,14.1601807 34.8172829,14.2602369 C35.1413012,14.412093 35.3118372,14.6989321 35.27773,15.0532628 C35.2436228,15.3569749 35.0730868,15.5594496 34.8002293,15.6944327 C34.6296933,15.7787971 34.4421038,15.8125429 34.2715678,15.8462887 C33.8452279,15.9137803 33.4018343,15.8800345 32.9754944,15.8800345 C32.8561192,15.8800345 32.7537976,15.8631616 32.6344225,15.9137803 C32.5491545,16.268111 32.6344225,16.6730604 32.5662081,17.044264 L32.5662081,17.044264 Z M56.6799943,16.1331278 L57.157495,16.0993821 C57.1916022,16.1500007 57.2086558,16.1668736 57.2257094,16.2006194 C57.2939238,16.419967 57.4644597,16.5549501 57.6691029,16.6393146 C58.1466036,16.8249164 58.6411579,16.8249164 59.1357122,16.6730604 C59.2380338,16.6393146 59.3403554,16.571823 59.4256234,16.4874586 C59.5791058,16.3187296 59.5620522,16.116255 59.3744626,15.9812718 C59.2550874,15.8800345 59.101605,15.8294158 58.9481227,15.8125429 L57.9760676,15.6269411 C57.7884781,15.5931953 57.6008885,15.5594496 57.4303525,15.491958 C57.2939238,15.4413393 57.1404414,15.3569749 57.0381198,15.2557375 C56.7993694,15.0532628 56.7823158,14.7326779 56.986959,14.4795845 C57.0892806,14.3614743 57.2086558,14.2602369 57.3450846,14.2096183 C57.4985669,14.1589996 57.6520493,14.091508 57.8225853,14.0746351 C58.300086,13.9902707 58.7775867,14.0071436 59.2380338,14.1589996 C59.3915162,14.2096183 59.5449986,14.2771098 59.6643737,14.3952201 C59.8178561,14.5302032 59.9201777,14.6820592 59.9201777,14.9014068 C59.7496417,14.9351526 59.5961594,14.9520255 59.442677,14.9351526 C59.4256234,14.9014068 59.3915162,14.867661 59.3744626,14.8339152 C59.272141,14.5808219 59.0674979,14.4627116 58.8116939,14.412093 C58.5047291,14.3446014 58.1977644,14.3614743 57.8907997,14.412093 C57.7373173,14.4458387 57.5838349,14.4964574 57.4815133,14.6145677 C57.3450846,14.7664237 57.3621381,14.9520255 57.5156205,15.0701357 C57.6008885,15.1376273 57.7202637,15.1713731 57.8225853,15.2051188 L58.8287475,15.3907206 L59.4938378,15.5594496 C59.613213,15.6100682 59.7325881,15.6775598 59.8349097,15.7619242 C60.1077673,15.9812718 60.1418745,16.3356025 59.9201777,16.6224417 C59.8349097,16.7574248 59.6984809,16.8417893 59.5620522,16.9092808 C59.3744626,17.0105182 59.186873,17.0780097 58.9822299,17.0948826 C58.5217827,17.1455013 58.0783892,17.1455013 57.6179421,17.044264 C57.3819203,16.9965137 57.1638048,16.8856588 56.986959,16.723679 C56.7993694,16.571823 56.6799943,16.4030941 56.6799943,16.1331278 L56.6799943,16.1331278 Z M37.8869304,16.8080435 C38.1256807,16.8080435 38.3473775,16.7742977 38.5690742,16.6899332 C39.0295214,16.5043314 39.3023789,16.1668736 39.3194325,15.6606869 C39.3364861,15.1713731 39.1659501,14.7664237 38.705503,14.5470761 C38.0915735,14.2433641 37.477644,14.2771098 36.8978217,14.5976948 C36.6420178,14.7326779 36.4885354,14.9688984 36.4373746,15.2557375 C36.420321,15.3232291 36.4032674,15.3907206 36.4032674,15.4750851 C36.3521066,16.0487634 36.590857,16.419967 37.0342505,16.6393146 C37.3071081,16.7574248 37.5970192,16.8080435 37.8869304,16.8080435 L37.8869304,16.8080435 Z M37.8698768,17.1286284 C37.5117512,17.1286284 37.1536257,17.0780097 36.8125537,16.9261537 C36.590857,16.8249164 36.3691602,16.6899332 36.1986242,16.5043314 C35.6017484,15.8462887 35.7893379,14.867661 36.3862138,14.4289659 C36.676125,14.2264912 36.9830897,14.091508 37.3241617,14.0408894 C37.9210375,13.9565249 38.5008598,13.9902707 39.0465749,14.2602369 C39.3705933,14.412093 39.6263972,14.6483134 39.7798796,14.9857713 C40.0527372,15.6269411 39.848094,16.3187296 39.3023789,16.7068061 C38.9783606,16.9261537 38.620235,17.044264 38.2280023,17.0780097 C38.1256807,17.1286284 38.0063055,17.1286284 37.8698768,17.1286284 L37.8698768,17.1286284 Z M48.8353396,16.723679 C48.8680825,16.7351526 48.9028719,16.7408894 48.9376612,16.7405519 L50.0290914,16.7405519 C50.1655202,16.7405519 50.301949,16.7068061 50.4213242,16.6899332 C50.7794497,16.6055688 51.0182001,16.3862212 51.1375752,16.0318905 C51.2057896,15.8294158 51.2057896,15.6100682 51.188736,15.3907206 C51.1546288,14.9014068 50.8306105,14.5470761 50.3360562,14.4627116 C50.1655202,14.4289659 50.0120378,14.412093 49.8415019,14.412093 L49.0058756,14.412093 C48.9547148,14.412093 48.8865004,14.4289659 48.8353396,14.4458387 C48.8012324,14.6820592 48.8012324,16.3693483 48.8353396,16.723679 L48.8353396,16.723679 Z M48.2555173,14.091508 C48.3407853,14.0746351 48.3919461,14.0746351 48.4431069,14.0746351 L50.1825738,14.091508 C50.4042706,14.091508 50.6089137,14.1421267 50.8135569,14.2096183 C51.3251648,14.3783472 51.7344511,14.8001695 51.7515047,15.4582122 C51.7515047,15.6269411 51.7515047,15.8125429 51.7173975,15.9812718 C51.5980224,16.4705857 51.2910576,16.7911706 50.8135569,16.9430266 C50.6430209,16.9936453 50.472485,17.044264 50.301949,17.044264 C49.6539123,17.0611368 49.0229292,17.0611368 48.3748925,17.0611368 C48.3407853,17.0611368 48.3237317,17.044264 48.2725709,17.0273911 C48.2725709,16.9936453 48.2555173,16.9430266 48.2555173,16.9092808 L48.2555173,14.091508 Z M22.5216394,14.8845339 C22.4875322,14.9014068 22.4534251,14.9351526 22.4193179,14.9351526 L22.0611923,15.0026441 C22.0270851,14.9520255 22.0100315,14.9351526 21.9759243,14.9014068 C21.8565492,14.6483134 21.6348524,14.5133303 21.3790484,14.4458387 C20.9186013,14.3108556 20.4581542,14.3277285 19.9977071,14.4964574 C19.3155632,14.7326779 19.0938664,15.4582122 19.2985096,16.0318905 C19.4008312,16.3018568 19.6054743,16.4874586 19.8612783,16.6055688 C20.168243,16.7405519 20.4922614,16.8080435 20.8333333,16.7911706 C21.1914589,16.7742977 21.5495844,16.6899332 21.8906563,16.5549501 C21.9418171,16.5380772 21.9759243,16.5043314 22.0270851,16.4705857 L22.0270851,15.947526 C21.9588707,15.9306532 21.9077099,15.9137803 21.8394956,15.9137803 L21.0550301,15.9137803 C20.9697621,15.9137803 20.9015477,15.8969074 20.7992261,15.8969074 L20.7992261,15.6100682 C21.0038693,15.5594496 21.1914589,15.5931953 21.3790484,15.5763224 L22.5216394,15.5763224 C22.5728002,15.8294158 22.5728002,16.3018568 22.538693,16.6899332 C22.2999427,16.8417893 22.0100315,16.9598995 21.7201204,17.0273911 C21.0038693,17.2129929 20.3046718,17.19612 19.6225279,16.9430266 C19.3837776,16.8586622 19.1620808,16.723679 18.9915449,16.5212043 C18.4117226,15.8462887 18.5993121,14.9688984 19.1791344,14.4964574 C19.3155632,14.3952201 19.4690456,14.2939827 19.6395815,14.2433641 C20.3217254,13.9902707 21.0209229,13.9733978 21.7030668,14.1927454 C22.1294067,14.2771098 22.3340499,14.4795845 22.5216394,14.8845339 L22.5216394,14.8845339 Z M44.4696188,14.7326779 L44.4696188,17.0273911 C44.2990828,17.0780097 44.1456005,17.0611368 43.9921181,17.044264 C43.9750645,16.9936453 43.9580109,16.9430266 43.9580109,16.9092808 L43.9580109,14.2096183 C43.9580109,14.1758725 43.9750645,14.1589996 43.9750645,14.1083809 C44.1456005,14.0577623 44.33319,14.091508 44.5378332,14.091508 L46.6865864,16.3693483 C46.8059616,16.3356025 46.7718544,16.268111 46.7718544,16.2174923 L46.7718544,14.4289659 C46.7718544,14.3277285 46.7718544,14.2264912 46.788908,14.1083809 C46.959444,14.0746351 47.0958727,14.0746351 47.2664087,14.1083809 C47.2834623,14.1758725 47.2834623,14.2264912 47.2834623,14.2939827 L47.2834623,16.875535 C47.2834623,16.9430266 47.2664087,16.9936453 47.2664087,17.0611368 C47.0958727,17.1117555 46.9423904,17.0948826 46.788908,17.0780097 C46.7377472,17.0780097 46.6695328,17.0273911 46.6354256,16.9936453 C46.5842648,16.9598995 46.5501576,16.9092808 46.4989968,16.8586622 L44.6913156,14.9520255 C44.6572084,14.8845339 44.588994,14.8507881 44.4696188,14.7326779 L44.4696188,14.7326779 Z M65.0021496,14.4289659 L65.0021496,15.2557375 C65.0021496,15.2894833 65.0192032,15.340102 65.0192032,15.3907206 C65.1044712,15.4075935 65.1897392,15.4075935 65.2579536,15.4075935 L66.0594726,15.4075935 L66.6392949,15.3907206 C66.7757237,15.3738478 66.8950989,15.340102 67.0144741,15.2726104 C67.1727314,15.2083247 67.2745414,15.0539377 67.270278,14.8845339 C67.270278,14.6989321 67.1509028,14.5808219 66.9974205,14.5133303 C66.9633133,14.4964574 66.9292061,14.4795845 66.8780453,14.4627116 L66.5199197,14.3952201 L65.155632,14.3952201 C65.1385784,14.3952201 65.0874176,14.412093 65.0021496,14.4289659 L65.0021496,14.4289659 Z M64.4734881,14.091508 C64.5587561,14.0746351 64.6099169,14.0746351 64.6610777,14.0746351 L66.7075093,14.091508 C66.8780453,14.091508 67.0656349,14.1252538 67.2361708,14.1589996 C67.440814,14.2096183 67.5942964,14.3108556 67.7136715,14.4795845 C67.9524219,14.7832966 67.9012611,15.1713731 67.61135,15.4075935 C67.4749212,15.5257038 67.3043852,15.5763224 67.1338492,15.6269411 C67.0315277,15.6606869 66.9121525,15.6775598 66.7927773,15.7113056 C66.8268845,15.7450514 66.8439381,15.7787971 66.8609917,15.7787971 C67.0826884,15.8800345 67.270278,16.0487634 67.440814,16.2343652 L68.0888507,16.9430266 C68.1059043,16.9598995 68.1229579,16.9936453 68.1229579,17.0273911 C67.9865291,17.0780097 67.6454572,17.0948826 67.5431356,17.0611368 C67.4919748,17.044264 67.440814,16.9936453 67.3896532,16.9598995 C67.2532244,16.8249164 67.1338492,16.6730604 66.9974205,16.5212043 L66.5540269,16.0487634 C66.3493838,15.8462887 66.0935798,15.7281785 65.8036687,15.7450514 L65.0533104,15.7450514 C65.0362568,15.8125429 65.0192032,15.8800345 65.0192032,15.9306532 L65.0192032,16.7574248 C65.0192032,16.8417893 65.0021496,16.9430266 65.0021496,17.044264 C64.8316136,17.0948826 64.6781313,17.0780097 64.5075953,17.044264 C64.4905417,16.9936453 64.4905417,16.9598995 64.4905417,16.9092808 L64.4734881,14.091508 Z M24.022356,14.412093 C24.0053024,14.7495508 23.9882488,15.0532628 24.022356,15.3907206 C24.0905704,15.3907206 24.1587848,15.4075935 24.2099455,15.4075935 L25.3866437,15.4075935 C25.4889653,15.4075935 25.5912869,15.3907206 25.6936085,15.3907206 C25.8470909,15.3738478 25.9835196,15.3232291 26.0858412,15.2388646 C26.3245916,15.0532628 26.3245916,14.7326779 26.0687876,14.563949 C26.0176268,14.5302032 25.9494124,14.4795845 25.8811981,14.4627116 C25.7447693,14.4289659 25.5912869,14.3952201 25.4548581,14.3952201 L24.2099455,14.3952201 C24.1758383,14.3952201 24.107624,14.412093 24.022356,14.412093 L24.022356,14.412093 Z M25.7618229,15.7113056 C26.2563772,16.0318905 26.8873603,16.6561875 27.109057,17.0273911 C26.9555747,17.0611368 26.6315563,17.0948826 26.5462883,17.0611368 C26.4951275,17.044264 26.4439668,16.9936453 26.392806,16.9598995 L25.9835196,16.5043314 C25.8300373,16.3524754 25.6936085,16.1837465 25.5230725,16.0487634 C25.3392347,15.8629929 25.086671,15.7593933 24.823875,15.7619242 C24.5680711,15.7619242 24.3122671,15.7450514 24.0564632,15.7619242 C24.0053024,15.9137803 24.022356,16.0656363 24.022356,16.2006194 L24.022356,17.044264 C23.8347664,17.1117555 23.6642304,17.0948826 23.4936945,17.0611368 C23.4766409,17.0273911 23.4595873,16.9936453 23.4595873,16.9598995 L23.4595873,14.1252538 C23.5278017,14.1083809 23.5789625,14.091508 23.6471768,14.091508 L25.7277157,14.1083809 C25.9016624,14.1104057 26.0740742,14.1387521 26.2393236,14.1927454 C26.5292347,14.2771098 26.7509315,14.4458387 26.8361995,14.7664237 C26.8873603,14.9857713 26.8361995,15.1713731 26.6827171,15.340102 C26.5292347,15.5088309 26.3416452,15.5931953 26.1199484,15.6606869 C26.0176268,15.6606869 25.8982516,15.6775598 25.7618229,15.7113056 L25.7618229,15.7113056 Z M50.4554314,30.9475261 C50.5236457,30.964399 50.5577529,30.964399 50.5918601,30.964399 L52.9793637,30.9475261 C53.5080252,30.9306532 54.0196331,30.8294159 54.531241,30.6438141 C55.1622241,30.4075936 55.6567784,30.03639 55.9978504,29.4627117 C56.1342792,29.2264913 56.2536543,28.9902708 56.3559759,28.7540503 C56.5265119,28.332228 56.6458871,27.9104058 56.7482087,27.4548377 C56.8505302,26.9823968 56.9357982,26.5099558 56.9187446,26.020642 C56.8846374,25.1938703 56.4924047,24.6539378 55.7079392,24.3839715 C55.6397248,24.3670986 55.5715105,24.3333529 55.5032961,24.31648 C55.2133849,24.2489884 54.9234738,24.1814968 54.616509,24.1814968 C53.81499,24.1814968 53.0134709,24.1814968 52.2290054,24.164624 C52.1778447,24.164624 52.1266839,24.1814968 52.0755231,24.1814968 C52.0584695,24.2152426 52.0243623,24.2321155 52.0243623,24.2658613 L50.4554314,30.9475261 Z M40.189166,48.5965701 L46.9935512,19.7439265 C47.1299799,19.6933078 47.2323015,19.7101807 47.3516767,19.7101807 L56.8675838,19.7101807 C57.8566925,19.7101807 58.8628547,19.7945452 59.8349097,20.0138928 C60.329464,20.132003 60.8069647,20.283859 61.2674119,20.5032066 C62.2394669,20.9587747 62.8533964,21.7011819 63.1262539,22.7135553 C63.2456291,23.1691234 63.3138435,23.6415643 63.3308971,24.1140053 C63.3650043,24.9913956 63.2797363,25.8687859 63.1433075,26.7461763 C62.9898252,27.7079311 62.7681284,28.652813 62.4611637,29.580822 C62.2224133,30.3401021 61.898395,31.0487635 61.5061622,31.740552 C60.6534824,33.1916206 59.4085698,34.1702483 57.7714245,34.6426893 C57.0381198,34.8620368 56.2877615,34.99702 55.5203497,35.0982573 C54.7188306,35.1994947 53.9173116,35.2332404 53.0987389,35.2332404 L50.046145,35.2501133 C49.9438234,35.2501133 49.8415019,35.2501133 49.7221267,35.2669862 C49.6880195,35.3344778 49.6709659,35.4019694 49.6539123,35.4694609 L48.4601605,40.4975824 L46.6013184,48.3940954 C46.5842648,48.461587 46.5672112,48.5290785 46.5501576,48.5796972 C46.533104,48.5965701 46.5160504,48.5965701 46.5160504,48.613443 C46.4989968,48.613443 46.4989968,48.6303159 46.4819433,48.6303159 L40.2914875,48.6303159 C40.2573803,48.613443 40.2403267,48.613443 40.189166,48.5965701 L40.189166,48.5965701 Z M11.2492118,30.9475261 C11.3174262,30.9475261 11.368587,30.964399 11.4197478,30.964399 L13.6196618,30.964399 C14.1483233,30.964399 14.6428776,30.8631617 15.1374319,30.7113057 C15.8877902,30.4750852 16.4676125,30.0195171 16.8427916,29.3277286 L17.0985956,28.804669 C17.3373459,28.2309907 17.4908283,27.6404395 17.6102035,27.0330154 C17.6784179,26.628066 17.7125251,26.2231167 17.6613643,25.8012944 C17.6102035,25.2613619 17.3373459,24.8395396 16.8427916,24.5695733 C16.7063629,24.5020818 16.5699341,24.4345902 16.4164517,24.3839715 C16.0924334,24.2658613 15.7513614,24.1983697 15.4102895,24.1983697 L12.9545715,24.1814968 C12.9034107,24.1814968 12.8522499,24.1983697 12.8010891,24.2152426 L11.2492118,30.7619243 L11.2492118,30.9475261 Z M7.3098309,48.5965701 C7.2757237,48.613443 7.24161651,48.6303159 7.20750931,48.6303159 L1.08526799,48.6303159 C1.05116079,48.6303159 1.03410719,48.613443 1,48.613443 L1,48.4953328 L7.73617082,19.828291 C7.75322442,19.7945452 7.77027802,19.7607994 7.78733161,19.6933078 L17.6443107,19.6933078 C18.6334193,19.6933078 19.6054743,19.7776723 20.5775294,19.9970199 C21.0209229,20.0982572 21.4643164,20.2332404 21.8736028,20.4188422 C21.9929779,20.4694608 22.0952995,20.5200795 22.2146747,20.5875711 C23.0673545,21.0431391 23.6301232,21.7349277 23.8859272,22.6798096 C24.0735168,23.3547252 24.1246776,24.0465137 24.0905704,24.7551751 C24.022356,26.628066 23.6471768,28.4334654 22.9991402,30.188246 C22.6921754,31.0318906 22.2658355,31.8417894 21.6860132,32.5504508 C20.9868157,33.444714 20.1000287,34.069011 19.0427056,34.4739604 C18.3264546,34.7439266 17.5760963,34.9126555 16.825738,35.0307658 C15.8366294,35.1826218 14.8475208,35.2332404 13.8584122,35.2501133 L10.8058183,35.2669862 C10.7034967,35.2669862 10.6011751,35.2669862 10.4817999,35.2838591 C10.4476927,35.3682236 10.4306392,35.4357151 10.4135856,35.5200796 L8.46947549,43.8046691 L7.39509888,48.3266039 C7.36099169,48.4109683 7.32688449,48.4953328 7.3098309,48.5965701 L7.3098309,48.5965701 Z M113.894812,23.8777848 C113.877759,23.8777848 113.860705,23.8777848 113.826598,23.8609119 C113.809544,23.8777848 113.792491,23.9115306 113.775437,23.9284035 L112.718114,25.5988197 C111.933649,26.8980323 111.285612,28.2647365 110.70579,29.6483135 C109.477931,32.5841966 108.591144,35.6213169 107.806678,38.6921831 C107.789625,38.7428018 107.806678,38.8102933 107.806678,38.8777849 C107.874893,38.8777849 107.909,38.8946578 107.960161,38.8946578 L112.598739,38.8946578 C112.6499,38.8946578 112.718114,38.8777849 112.786328,38.8777849 C112.854543,38.5234542 112.939811,38.1859964 113.008025,37.8485386 L113.604901,34.676435 C113.707223,34.0858839 113.792491,33.4953327 113.877759,32.9047815 C113.963027,32.2804845 114.014187,31.6393147 114.082402,31.0150177 C114.184723,30.0701358 114.235884,29.108381 114.252938,28.1634991 C114.269991,27.3704732 114.235884,26.5774474 114.133563,25.8012944 L113.98008,24.5527005 C113.963027,24.31648 113.928919,24.0971324 113.894812,23.8777848 L113.894812,23.8777848 Z M111.814273,19.7101807 L117.81714,19.7101807 C117.851247,19.7776723 117.902408,19.8451639 117.936515,19.9295283 C118.618659,21.3131054 119.096159,22.764174 119.420178,24.2489884 C119.607767,25.1263787 119.744196,26.0037691 119.846518,26.8811594 C119.931786,27.7789659 119.982776,28.6794721 120,29.580822 C120,30.4750852 119.982946,31.3693484 119.914732,32.2636116 C119.863571,33.0566375 119.778303,33.8496634 119.693035,34.6595622 C119.624821,35.3513507 119.522499,36.0431392 119.420178,36.7349277 L119.027945,39.0971325 C118.584551,41.5437017 117.970622,43.9565251 117.407853,46.3862214 L116.947406,48.3266039 C116.930353,48.4109683 116.896245,48.5122057 116.879192,48.5965701 C116.810977,48.5965701 116.725709,48.613443 116.657495,48.613443 L110.75695,48.613443 C110.688736,48.613443 110.620522,48.613443 110.535254,48.5965701 C110.5182,48.461587 110.552307,48.3603496 110.569361,48.2591123 L111.575523,43.973398 C111.592577,43.9059064 111.592577,43.8384149 111.60963,43.7709233 C111.507309,43.6865588 111.404987,43.7203046 111.302666,43.7203046 L106.988105,43.7203046 C106.885784,43.7203046 106.783462,43.7203046 106.681141,43.7371775 C106.612926,43.8384149 106.595873,43.9565251 106.578819,44.0577624 L105.555603,48.3603496 C105.53855,48.4447141 105.504443,48.5122057 105.470335,48.613443 L99.3822012,48.613443 C99.3310404,48.613443 99.2798796,48.5965701 99.2116652,48.5965701 C99.2287188,48.5122057 99.2287188,48.4447141 99.2287188,48.3772225 L100.814703,41.7124306 C101.513901,38.9115307 102.349527,36.1443766 103.372743,33.4278411 C104.208369,31.2006195 105.180424,29.0408895 106.357122,26.9823968 C107.806678,24.4345902 109.512038,22.0892584 111.541416,19.980147 C111.643737,19.8957825 111.729005,19.8114181 111.814273,19.7101807 L111.814273,19.7101807 Z M81.6805675,37.5616994 L87.9733448,37.5616994 C88.007452,37.5616994 88.0586128,37.5785723 88.1097736,37.5954452 L88.0586128,37.8991572 L87.3764689,40.8012945 C87.2400401,41.3580999 87.1718257,41.9317782 87.2059329,42.5054565 C87.2229865,42.6741854 87.2400401,42.8260414 87.2912009,42.9947703 C87.4617369,43.5853215 87.8710232,43.9227793 88.4678991,44.0577624 C89.1670966,44.2264913 89.8662941,44.1758727 90.5313844,43.8890335 C91.2135282,43.5853215 91.6910289,43.0791348 92.0150473,42.421092 C92.322012,41.7461764 92.4584408,41.0375149 92.4584408,40.2951077 C92.4584408,39.4683361 92.2196905,38.7259289 91.7251361,38.0510132 C91.264689,37.4098434 90.7360275,36.8361651 90.1562052,36.3131055 C89.5763829,35.773173 88.9965606,35.2669862 88.3996847,34.7439266 C87.4617369,33.8834092 86.5920034,32.9722731 85.8416452,31.9430267 C85.3129837,31.2174924 84.8695901,30.4413394 84.5626254,29.5976949 C84.3068214,28.8721605 84.1703927,28.1128804 84.2044999,27.3367275 C84.2215535,26.8642865 84.323875,26.4087185 84.4603038,25.9531504 C84.8013758,24.7383023 85.3641445,23.6246914 86.1997707,22.6460638 C87.0524506,21.6336903 88.1097736,20.8912831 89.320579,20.3513506 C90.207366,19.9464012 91.1453138,19.6933078 92.1173689,19.5245789 C93.2599599,19.3389771 94.4025509,19.2714856 95.5621955,19.3052314 C96.3807681,19.3389771 97.1993408,19.3895958 98.0008598,19.5245789 C98.7171109,19.6595621 99.4163084,19.828291 100.081399,20.1488759 C100.712382,20.4525879 101.241043,20.8575373 101.616222,21.4480885 C101.872026,21.8530379 102.042562,22.3086059 102.144884,22.7810469 C102.298366,23.5234541 102.298366,24.2827342 102.230152,25.0420143 C102.144884,26.0375149 101.906134,26.9992696 101.667383,27.9778973 L101.513901,28.5853214 C101.479794,28.6021943 101.479794,28.6190672 101.46274,28.6190672 C101.445686,28.6190672 101.445686,28.6359401 101.428633,28.6359401 L95.9544282,28.6359401 C95.920321,28.6359401 95.8691602,28.6190672 95.835053,28.6190672 C95.8179994,28.6190672 95.8179994,28.6021943 95.8009458,28.6021943 C95.835053,28.4165925 95.8862138,28.2141178 95.9373746,28.0116431 C96.0226426,27.6235666 96.1249642,27.252363 96.1931786,26.8642865 C96.2613929,26.5099558 96.2784465,26.1556251 96.2272858,25.8012944 C96.1420178,25.2107432 95.8521066,24.772048 95.2893379,24.5189547 C95.0676412,24.4177173 94.8459444,24.3502258 94.607194,24.31648 C93.805675,24.1983697 93.0212095,24.2489884 92.2708512,24.5695733 C92.0150473,24.6876836 91.7933505,24.8226667 91.5887074,24.9913956 C91.3670106,25.1769974 91.179421,25.396345 91.0259387,25.6494384 C90.7360275,26.1556251 90.7019203,26.6786847 90.9577243,27.2017443 C91.1453138,27.5729479 91.3670106,27.9104058 91.6228146,28.2309907 C92.0832617,28.804669 92.5948696,29.3277286 93.1235311,29.8170424 C93.9762109,30.6100683 94.862998,31.3356026 95.7668386,32.0611369 C96.090857,32.3311032 96.4319289,32.5841966 96.7559473,32.8541628 C97.3608383,33.350732 97.8843838,33.9368962 98.3078246,34.5920706 C98.8364861,35.4188422 99.1263972,36.3131055 99.2116652,37.2748603 C99.2969332,38.3884711 99.1605044,39.4683361 98.9388077,40.5482011 C98.7341645,41.4593372 98.461307,42.3536004 98.0861278,43.2141179 C97.6938951,44.0915082 97.2163944,44.9182799 96.5854113,45.6438142 C95.6133563,46.8080437 94.4025509,47.6348153 92.9871023,48.1916207 C92.0491545,48.5459514 91.0600459,48.765299 90.0709372,48.8834093 C89.150043,49.0015195 88.2120952,49.0183924 87.2741473,48.9846466 C86.2338779,48.9509008 85.2106621,48.8496635 84.2044999,48.5628243 C83.7611063,48.4447141 83.3177128,48.2759852 82.9084265,48.0566376 C81.6976211,47.4323406 80.9643164,46.453713 80.6914589,45.1376275 C80.5038693,44.2939829 80.5209229,43.4503384 80.6061909,42.5898209 C80.6914589,41.644939 80.9302092,40.71693 81.151906,39.788921 L81.6294067,37.781047 C81.6294067,37.7304283 81.6464603,37.6460639 81.6805675,37.5616994 L81.6805675,37.5616994 Z" id="Fill-8" fill="#FFFFFF"></path>
                <path d="M119.878423,50.9658268 C119.844611,50.7437008 119.861432,50.5386615 119.878423,50.3165356 C120.16727,50.2823624 120.422136,50.2823624 120.694162,50.299449 C120.897884,50.3165356 121,50.4703151 121,50.6582678 C121,50.8462205 120.880893,50.9658268 120.694162,50.9829134 C120.405314,51 120.150449,51.0170866 119.878423,50.9658268 M70.7065961,15.5281962 C70.9104882,15.0155979 71.2163265,14.5884326 71.3862367,14.0758343 C71.5219949,14.2296138 71.5561468,14.4004799 71.6411019,14.5371728 L71.8959671,15.0326845 C71.9637613,15.186464 72.0658773,15.3231569 72.1166804,15.5111096 C71.8788062,15.5623694 71.1653535,15.579456 70.7065961,15.5281962 M32.3069025,14.1100075 C32.3237236,14.0929209 32.3407146,14.0929209 32.3577057,14.0929209 L33.7169868,14.0929209 C33.852915,14.0929209 34.006004,14.1270941 34.1247712,14.1954406 C34.2946813,14.2979602 34.3966274,14.4517397 34.3796364,14.6567791 C34.3626454,14.8618184 34.2608692,15.0155979 34.0737982,15.0839443 C33.9718521,15.1352042 33.852915,15.1522908 33.7511388,15.1693774 C33.5812286,15.2035506 32.5276158,15.186464 32.3069025,15.1693774 C32.2387686,14.9643381 32.2387686,14.3663067 32.3069025,14.1100075 M37.5399652,16.502133 C37.2342968,16.5192196 36.9622707,16.4508732 36.6904144,16.3312669 C36.2486481,16.109141 36.0107738,15.7332355 36.0617469,15.1522908 C36.0617469,15.0839443 36.0787379,15.0155979 36.0957289,14.9301648 C36.146702,14.6396925 36.299791,14.4175665 36.5546562,14.263787 C37.1493418,13.9391414 37.7608484,13.9049682 38.3555339,14.2125272 C38.8142913,14.4346531 38.9842014,14.8447318 38.9672104,15.3402435 C38.9502194,15.8528418 38.6785331,16.194574 38.2196058,16.3825267 C38.0157136,16.4679598 37.7778394,16.502133 37.5399652,16.502133 M48.4483666,16.4167 C48.4142147,16.0749677 48.4142147,14.3492201 48.4651877,14.1100075 C48.5161608,14.0929209 48.5841248,14.0758343 48.6350979,14.0758343 L49.4678275,14.0758343 C49.6377377,14.0758343 49.7904869,14.0929209 49.960397,14.1270941 C50.4531365,14.2125272 50.7759657,14.571346 50.8099478,15.0668577 C50.8271087,15.2889837 50.8271087,15.494023 50.7589747,15.7161489 C50.6400376,16.0749677 50.4191544,16.2970937 50.0453521,16.3825267 C49.909424,16.4167 49.7734959,16.4337866 49.6545588,16.4337866 C49.2979174,16.4508732 48.9239451,16.4337866 48.5671338,16.4337866 C48.5161608,16.4337866 48.4991698,16.4167 48.4483666,16.4167 M64.5556788,14.0929209 C64.6406339,14.0758343 64.6916069,14.0758343 64.7425799,14.0758343 L66.1018611,14.0758343 C66.2207982,14.0758343 66.3397353,14.1100075 66.4588424,14.1441807 C66.5031889,14.1462311 66.5454965,14.1643429 66.5777795,14.1954406 C66.7305287,14.2808736 66.8494658,14.3833933 66.8494658,14.571346 C66.8538835,14.7427247 66.7524471,14.8990672 66.5946006,14.9643381 C66.4756635,15.0155979 66.3397353,15.0668577 66.2207982,15.0839443 C66.034067,15.1010309 65.8300049,15.1010309 65.6432736,15.1010309 L64.8446959,15.1010309 C64.7597409,15.1010309 64.6916069,15.0839443 64.6066518,15.0839443 C64.5898307,15.0326845 64.5898307,14.9814247 64.5898307,14.9472514 C64.5556788,14.6567791 64.5556788,14.3833933 64.5556788,14.0929209 M23.72644,14.0758343 C23.8282162,14.0758343 23.8791893,14.0587477 23.9471533,14.0587477 L25.1874974,14.0587477 C25.3234255,14.0587477 25.4763446,14.0929209 25.6122728,14.1270941 C25.6804067,14.1441807 25.7482009,14.178354 25.7991739,14.2296138 C26.0540392,14.4004799 26.0540392,14.7251255 25.8161649,14.9130782 C25.700626,14.9959483 25.566397,15.0489168 25.4255415,15.0668577 C25.3234255,15.0839443 25.2214794,15.0839443 25.1195333,15.0839443 L23.9471533,15.0839443 C23.8963502,15.0839443 23.8282162,15.0668577 23.7602521,15.0668577 C23.6922881,14.7422121 23.7092791,14.4175665 23.72644,14.0758343 M50.062513,30.8207128 L51.6255165,24.0715016 C51.6255165,24.0373283 51.6594985,24.0202417 51.6766594,23.9860685 C51.7274626,23.9860685 51.7784356,23.9689819 51.8294087,23.9689819 L54.2081507,23.9860685 C54.513989,23.9860685 54.8028363,24.0544149 55.0916835,24.1227614 C55.1598175,24.139848 55.2276116,24.1569346 55.2955757,24.1911078 C56.0771624,24.4644936 56.4679557,25.0112651 56.5019377,25.8485091 C56.5190987,26.3440208 56.4341436,26.8224459 56.3320276,27.300871 C56.2300815,27.7451229 56.1111444,28.1893747 55.9412343,28.61654 C55.8394581,28.8557525 55.7203511,29.1120517 55.5845929,29.3341776 C55.2447726,29.9151224 54.7518632,30.3081145 54.1231957,30.5302404 C53.6306261,30.7181931 53.1037348,30.8207128 52.5770133,30.8377994 L50.1982712,30.854886 C50.1642892,30.8377994 50.1303072,30.8207128 50.062513,30.8207128 M11,30.8207128 C11.016991,30.7352797 11,30.6840199 11.016991,30.6327601 L12.5631734,24.0031551 C12.6141464,23.9860685 12.6651195,23.9689819 12.7160925,23.9689819 L15.1627986,23.9860685 C15.5026189,23.9860685 15.8424392,24.0544149 16.1654384,24.1740212 C16.3181876,24.225281 16.4541158,24.2936275 16.5902138,24.3619739 C17.0827833,24.6353597 17.3376485,25.062525 17.4056126,25.6092965 C17.4397645,26.0193752 17.4226036,26.4294538 17.3548095,26.8566191 C17.2357024,27.4717371 17.0827833,28.0697685 16.845079,28.6507132 C16.776945,28.8386659 16.69199,29.009532 16.5902138,29.1803981 C16.2162416,29.8809492 15.6385471,30.3422877 14.8911123,30.5815002 C14.398203,30.7352797 13.8884725,30.8377994 13.3787421,30.8377994 C12.6481284,30.854886 11.9176847,30.8377994 11.1869012,30.8377994 C11.1189371,30.8377994 11.068134,30.8377994 11,30.8207128 M113.269088,23.6614229 L113.370864,24.3278007 L113.523953,25.5922099 C113.608909,26.3952806 113.642891,27.1812647 113.642891,27.9843354 C113.62573,28.9582722 113.574757,29.9151224 113.47298,30.8719726 L113.269088,32.785673 C113.200954,33.3837044 113.115999,33.9817358 112.997062,34.5797671 L112.402377,37.7918791 L112.181493,38.8343332 C112.113699,38.8514198 112.045565,38.8514198 111.994762,38.8514198 L107.373036,38.8514198 C107.322233,38.8514198 107.27126,38.8343332 107.220117,38.8343332 C107.220117,38.7659867 107.203126,38.6976403 107.220117,38.6462096 C108.001874,35.5366173 108.902228,32.4610274 110.10859,29.4879571 C110.686284,28.0697685 111.331943,26.685753 112.113699,25.3871706 C112.45352,24.8233124 112.810161,24.2594543 113.166972,23.6955961 C113.184133,23.6614229 113.200954,23.6443363 113.218115,23.6272497 C113.234936,23.6443363 113.251927,23.6443363 113.269088,23.6614229 M29.9619726,44.1824423 C29.5711792,44.1824423 29.1973769,44.1653557 28.8405656,44.0457494 C28.6366734,43.977403 28.4327812,43.89197 28.2628711,43.7552771 C28.0759699,43.6013267 27.9741937,43.4135449 27.9230508,43.1741614 C27.8892387,42.9351198 27.8720777,42.6959072 27.9060598,42.4566947 C27.9570328,41.8926656 28.0759699,41.346065 28.211898,40.7992934 L29.9281604,33.400791 L31.4741729,26.771186 C31.559128,26.3952806 31.6950561,26.0193752 31.8139932,25.6434697 C31.8309842,25.6092965 31.8479752,25.5751233 31.8649662,25.5238635 C32.1538135,24.754966 32.714517,24.2936275 33.4962736,24.1056748 C34.1759142,23.9518953 34.8383938,23.9177221 35.5180344,24.0715016 C35.7051055,24.1227614 35.8918367,24.1911078 36.0617469,24.2765409 C36.4015672,24.4644936 36.5884684,24.754966 36.6224504,25.147958 C36.6564324,25.5922099 36.6224504,26.0364618 36.5205043,26.4807137 L35.9599707,28.9753588 L34.5157345,35.2461449 L33.1392923,41.1581122 C33.0373463,41.6194507 32.901588,42.0807892 32.714517,42.5250411 C32.6635439,42.6275608 32.6295619,42.7300804 32.5785888,42.8324292 C32.3237236,43.4135449 31.8821272,43.7721928 31.2874416,43.9603164 C30.8455053,44.1482691 30.3867479,44.1993581 29.9619726,44.1824423" id="Fill-10" fill="#172E52"></path>
            </g>
        </g>
    </g>
</svg>