<?xml version="1.0" encoding="UTF-8"?>
<svg width="26px" height="26px" viewBox="0 0 26 26" version="1.1" xmlns="http://www.w3.org/2000/svg" xmlns:xlink="http://www.w3.org/1999/xlink">
    <!-- Generator: Sketch 54.1 (76490) - https://sketchapp.com -->
    <title>time-line</title>
    <desc>Created with Sketch.</desc>
    <g id="Page-1" stroke="none" stroke-width="1" fill="none" fill-rule="evenodd">
        <g id="Desktop-HD" transform="translate(-111.000000, -7172.000000)">
            <g id="time-line" transform="translate(109.000000, 7172.000000)">
                <polygon id="Path" points="0 24 30 24 30 54 0 54"></polygon>
                <path d="M15,25.5 C8.09625,25.5 2.5,19.90375 2.5,13 C2.5,6.09625 8.09625,0.5 15,0.5 C21.90375,0.5 27.5,6.09625 27.5,13 C27.5,19.90375 21.90375,25.5 15,25.5 Z M15,23 C20.5228475,23 25,18.5228475 25,13 C25,7.4771525 20.5228475,3 15,3 C9.4771525,3 5,7.4771525 5,13 C5,18.5228475 9.4771525,23 15,23 Z M16.25,13 L21.25,13 L21.25,15.5 L13.75,15.5 L13.75,6.75 L16.25,6.75 L16.25,13 Z" id="Shape" fill="#0DB4E6" fill-rule="nonzero"></path>
            </g>
        </g>
    </g>
</svg>