<?xml version="1.0" encoding="UTF-8"?>
<svg width="29px" height="32px" viewBox="0 0 29 32" version="1.1" xmlns="http://www.w3.org/2000/svg" xmlns:xlink="http://www.w3.org/1999/xlink">
    <!-- Generator: Sketch 54.1 (76490) - https://sketchapp.com -->
    <title>stack-line</title>
    <desc>Created with Sketch.</desc>
    <g id="Page-1" stroke="none" stroke-width="1" fill="none" fill-rule="evenodd">
        <g id="Desktop-HD" transform="translate(-1019.000000, -3058.000000)">
            <g id="stack-line" transform="translate(1016.000000, 3057.000000)">
                <polygon id="Path" points="0 0 35 0 35 35 0 35"></polygon>
                <path d="M29.2877083,22.1666667 L31.040625,23.218125 C31.2606038,23.3498174 31.3952554,23.5873644 31.3952554,23.84375 C31.3952554,24.1001356 31.2606038,24.3376826 31.040625,24.469375 L18.2510417,32.143125 C17.7888484,32.4208108 17.2111516,32.4208108 16.7489583,32.143125 L3.959375,24.469375 C3.73939618,24.3376826 3.60474456,24.1001356 3.60474456,23.84375 C3.60474456,23.5873644 3.73939618,23.3498174 3.959375,23.218125 L5.71229167,22.1666667 L17.5,29.2395833 L29.2877083,22.1666667 L29.2877083,22.1666667 Z M29.2877083,15.3125 L31.040625,16.3639583 C31.2606038,16.4956507 31.3952554,16.7331978 31.3952554,16.9895833 C31.3952554,17.2459689 31.2606038,17.483516 31.040625,17.6152083 L17.5,25.7395833 L3.959375,17.6152083 C3.73939618,17.483516 3.60474456,17.2459689 3.60474456,16.9895833 C3.60474456,16.7331978 3.73939618,16.4956507 3.959375,16.3639583 L5.71229167,15.3125 L17.5,22.3854167 L29.2877083,15.3125 Z M18.2495833,1.90895833 L31.040625,9.58270833 C31.2606038,9.7144007 31.3952554,9.95194777 31.3952554,10.2083333 C31.3952554,10.4647189 31.2606038,10.702266 31.040625,10.8339583 L17.5,18.9583333 L3.959375,10.8339583 C3.73939618,10.702266 3.60474456,10.4647189 3.60474456,10.2083333 C3.60474456,9.95194777 3.73939618,9.7144007 3.959375,9.58270833 L16.7489583,1.90895833 C17.2111516,1.63127257 17.7888484,1.63127257 18.2510417,1.90895833 L18.2495833,1.90895833 Z M17.5,4.85916667 L8.58520833,10.2083333 L17.5,15.5575 L26.4147917,10.2083333 L17.5,4.85916667 Z" id="Shape" fill="#00C4FF" fill-rule="nonzero"></path>
            </g>
        </g>
    </g>
</svg>